<?xml version="1.0" encoding="UTF-8"?>
<svg width="144px" height="32px" viewBox="0 0 144 32" version="1.1" xmlns="http://www.w3.org/2000/svg" xmlns:xlink="http://www.w3.org/1999/xlink">
    <title>My Millennium</title>
    <defs>
        <rect id="path-1" x="0" y="0" width="144" height="32"></rect>
    </defs>
    <g id="Review-12" stroke="none" stroke-width="1" fill="none" fill-rule="evenodd">
        <g id="Homepage-Redesign-Property-BookingWidget" transform="translate(-24.000000, -52.000000)">
            <g id="My-Millennium" transform="translate(24.000000, 52.000000)">
                <mask id="mask-2" fill="white">
                    <use xlink:href="#path-1"></use>
                </mask>
                <g id="Mask" opacity="0.699999988"></g>
                <g opacity="0.699999988" mask="url(#mask-2)" fill-rule="nonzero" id="Path">
                    <g transform="translate(-0.000000, 0.000000)">
                        <path d="M56.8989226,16.6790507 C56.767325,14.5709017 56.767325,12.5505922 56.767325,10.4424432 C56.767325,10.0032455 56.767325,9.56404778 56.767325,9.12485007 C56.767325,8.68565236 56.8989226,8.33429419 57.0743862,8.02685579 L55.4074827,8.02685579 C55.1881533,8.02685579 55.0565556,8.11469533 54.9688238,8.24645465 C54.8810921,8.37821396 54.8372262,8.55389304 54.7494944,8.7734919 L51.8982121,15.8884948 C51.8104804,16.0202541 51.8104804,16.1080937 51.7666145,16.1959332 C51.6788827,16.2837728 51.6350168,16.3276925 51.5472851,16.3276925 C51.4595533,16.3276925 51.4595533,16.239853 51.4156874,16.1080937 C51.3279557,15.9763344 51.3279557,15.8884948 51.2840898,15.7567355 L48.8714663,8.29037442 C48.8714663,8.15861511 48.7837345,8.15861511 48.6521369,8.07077556 C48.5644051,8.07077556 48.4328075,7.98293602 48.3450757,7.98293602 L46.3272451,7.98293602 C46.5465745,8.11469533 46.6343063,8.20253488 46.6781722,8.33429419 C46.6781722,8.4660535 46.765904,8.64173259 46.765904,8.90525121 L46.765904,13.1215492 C46.765904,14.0877842 46.765904,15.0979389 46.6781722,16.1959332 C46.5904404,16.7229705 46.5465745,17.1621682 46.4588428,17.5574461 C46.371111,17.9966438 46.2395134,18.3040822 46.1079157,18.5236811 L45.9763181,18.7432799 L47.9502828,18.7432799 C47.8186851,18.4358415 47.6432216,17.9966438 47.6432216,17.5135263 C47.5554898,16.9864891 47.5554898,16.4155321 47.5554898,15.7567355 L47.5554898,10.2228443 C47.5554898,10.091085 47.5554898,9.91540595 47.5554898,9.87148618 C47.5554898,9.73972686 47.6432216,9.73972686 47.6870875,9.73972686 C47.7748192,9.73972686 47.8186851,9.82756641 47.9064169,10.0471653 C47.9941486,10.1789246 48.0380145,10.3985234 48.1257463,10.7059618 L51.2402239,19.1385579 L54.9688238,10.1350048 C55.0565556,10.0032455 55.1004215,9.91540595 55.1881533,9.82756641 C55.275885,9.82756641 55.3197509,9.91540595 55.3197509,9.95932572 C55.3197509,10.0471653 55.3197509,10.091085 55.3197509,10.1789246 L55.3197509,15.8884948 C55.3197509,16.4155321 55.3197509,16.8986495 55.3197509,17.4696066 C55.3197509,18.0405636 55.1881533,18.4797613 55.0126897,19.0067986 L57.4253132,19.0067986 C57.2937156,18.6554404 57.1182521,18.2601624 57.0743862,17.9088043 C56.9866544,17.4696066 56.8989226,17.0304089 56.8989226,16.6790507 L56.8989226,16.6790507 Z" fill="#000000"></path>
                        <path d="M62.1189626,9.0809303 C62.2066943,8.72957213 62.2505602,8.33429419 62.4260237,8.07077556 L60.2327297,8.07077556 C60.3643273,8.37821396 60.5397908,8.72957213 60.5836567,9.0809303 C60.5836567,9.43228847 60.5836567,9.87148618 60.5836567,10.2667641 L60.5836567,16.7229705 C60.5836567,17.0743286 60.5836567,17.5135263 60.5836567,17.9088043 C60.495925,18.2601624 60.4520591,18.6554404 60.2327297,18.918959 L62.4260237,18.918959 C62.2944261,18.6115206 62.1189626,18.2601624 62.1189626,17.9088043 C62.0312308,17.5574461 62.0312308,17.1182484 62.0312308,16.7229705 L62.0312308,10.2228443 C62.0312308,9.87148618 62.0312308,9.52012801 62.1189626,9.0809303 L62.1189626,9.0809303 Z" fill="#000000"></path>
                        <path d="M69.2691013,18.2162427 C69.0497719,18.2162427 68.8304425,18.3040822 68.5233813,18.3040822 L67.2951366,18.3040822 L67.2951366,10.3106839 C67.2951366,9.95932572 67.2951366,9.52012801 67.3828684,9.12485007 C67.4706002,8.7734919 67.514466,8.37821396 67.6899296,8.11469533 L65.4966355,8.11469533 C65.6282331,8.42213373 65.8036966,8.7734919 65.8475625,9.12485007 C65.8475625,9.47620824 65.8475625,9.91540595 65.8475625,10.3106839 L65.8475625,15.0979389 C65.8475625,15.5371366 65.8475625,16.1959332 65.7598308,17.0743286 C65.7598308,17.4256868 65.672099,17.8209647 65.6282331,18.1723229 C65.5405014,18.5236811 65.4966355,18.7432799 65.3211719,18.9628788 L69.8832236,18.9628788 C70.2341507,18.9628788 70.5412119,18.9628788 70.8921389,18.8750392 L71.1992001,17.2939275 C70.7605413,17.6452857 70.4096142,17.9527241 69.9709554,18.0844834 C69.7077601,18.1284031 69.4884307,18.1284031 69.2691013,18.2162427 L69.2691013,18.2162427 Z" fill="#000000"></path>
                        <path d="M77.3404236,18.2162427 C77.1210941,18.2162427 76.9017647,18.3040822 76.5947036,18.3040822 L75.4103248,18.3040822 L75.4103248,10.3106839 C75.4103248,9.95932572 75.4103248,9.52012801 75.4980565,9.12485007 C75.5857883,8.7734919 75.6296542,8.37821396 75.8051177,8.11469533 L73.6118236,8.11469533 C73.7434212,8.42213373 73.9188848,8.7734919 73.9627507,9.12485007 C73.9627507,9.47620824 73.9627507,9.91540595 73.9627507,10.3106839 L73.9627507,15.0979389 C73.9627507,15.5371366 73.9627507,16.1959332 73.8750189,17.0743286 C73.8750189,17.4256868 73.7872871,17.8209647 73.7434212,18.1723229 C73.6556895,18.5236811 73.6118236,18.7432799 73.4363601,18.9628788 L77.9984118,18.9628788 C78.3493388,18.9628788 78.6564,18.9628788 79.0073271,18.8750392 L79.3143882,17.2939275 C78.8757294,17.6452857 78.5248024,17.9527241 78.0861435,18.0844834 C77.7790824,18.1284031 77.559753,18.1284031 77.3404236,18.2162427 L77.3404236,18.2162427 Z" fill="#000000"></path>
                        <path d="M85.2362823,18.2162427 L83.3500494,18.2162427 L83.3500494,13.6485865 L83.7887082,13.6485865 C84.3589646,13.6485865 85.0169529,13.6485865 85.6749411,13.5168272 C86.0258681,13.4289876 86.3329293,13.3850679 86.6399905,13.2093888 C86.9470517,13.0776295 87.1663811,12.9019504 87.2102469,12.6823515 C85.8942705,12.7701911 84.6660258,12.8141108 83.3500494,12.8141108 L83.3500494,8.72957213 L84.8853552,8.72957213 C85.4117458,8.72957213 85.8504046,8.72957213 86.2451976,8.81741167 C86.6838564,8.90525121 87.0347834,9.12485007 87.2541128,9.34444892 L87.1663811,8.02685579 L81.3760847,8.02685579 C81.5076823,8.33429419 81.6831458,8.68565236 81.6831458,9.03701053 C81.6831458,9.38836869 81.6831458,9.82756641 81.6831458,10.2228443 L81.6831458,16.7229705 C81.6831458,17.0743286 81.6831458,17.5135263 81.5954141,17.9088043 C81.5076823,18.348002 81.3760847,18.6554404 81.244487,18.918959 L86.0258681,18.918959 C86.5961246,18.918959 87.2102469,18.918959 87.6050399,18.8311195 L87.9121011,17.2500077 C87.561174,17.6013659 87.1225152,17.8209647 86.5961246,17.9966438 C86.2890634,18.1284031 85.7626729,18.2162427 85.2362823,18.2162427 L85.2362823,18.2162427 Z" fill="#000000"></path>
                        <path d="M98.2644492,8.86133144 C98.3521809,9.16876984 98.3521809,9.65188732 98.3521809,10.2228443 L98.3521809,16.239853 C98.3521809,16.3276925 98.3521809,16.3716123 98.3521809,16.4594518 C98.3521809,16.5472914 98.2644492,16.5912111 98.2205833,16.5912111 C98.1328515,16.5912111 98.1328515,16.5033716 98.0889856,16.4594518 C98.0012539,16.3716123 97.957388,16.3276925 97.8696562,16.1520134 L94.5797151,11.3208386 C94.2726539,10.8816409 94.0094586,10.3546037 93.5707998,9.73972686 C93.2198728,9.0809303 92.8250798,8.55389304 92.6934822,8.37821396 C92.6057504,8.24645465 92.4741528,8.15861511 92.386421,8.15861511 C92.2986892,8.15861511 92.1670916,8.07077556 92.0354939,8.07077556 L90.3685904,8.07077556 C90.5879198,8.37821396 90.7195175,8.64173259 90.8072493,9.0809303 C90.894981,9.43228847 90.894981,9.87148618 90.894981,10.3106839 L90.894981,13.9560249 C90.894981,14.7465808 90.894981,15.5371366 90.8072493,16.5033716 C90.7195175,17.381767 90.5879198,18.2601624 90.2808587,18.9628788 L92.1670916,18.9628788 C91.9477622,18.3040822 91.8161645,17.6013659 91.7284328,16.7668902 C91.640701,15.9763344 91.640701,15.2296982 91.640701,14.5709017 L91.640701,10.2228443 C91.640701,10.091085 91.640701,10.0032455 91.7284328,10.0032455 C91.8161645,10.0032455 91.8600304,10.091085 91.9477622,10.2228443 L98.0012539,19.1385579 L99.1856327,19.1385579 C99.1856327,18.6115206 99.1856327,18.1284031 99.1856327,17.5574461 L99.1856327,10.7498816 C99.1856327,10.3106839 99.2733644,9.87148618 99.3172303,9.43228847 C99.4049621,8.99309076 99.5365597,8.55389304 99.6681574,8.20253488 L98.0012539,8.20253488 C98.1328515,8.29037442 98.2205833,8.55389304 98.2644492,8.86133144 L98.2644492,8.86133144 Z" fill="#000000"></path>
                        <path d="M110.152103,8.86133144 C110.239835,9.16876984 110.239835,9.65188732 110.239835,10.2228443 L110.239835,16.239853 C110.239835,16.3276925 110.239835,16.3716123 110.239835,16.4594518 C110.239835,16.5472914 110.152103,16.5912111 110.108237,16.5912111 C110.020505,16.5912111 110.020505,16.5033716 109.97664,16.4594518 C109.888908,16.3716123 109.845042,16.3276925 109.75731,16.1520134 L106.467369,11.3208386 C106.160308,10.8816409 105.897113,10.3546037 105.458454,9.73972686 C105.107527,9.0809303 104.712734,8.55389304 104.581136,8.37821396 C104.493404,8.24645465 104.361807,8.15861511 104.274075,8.15861511 C104.186343,8.15861511 104.054746,8.07077556 103.923148,8.07077556 L102.212379,8.07077556 C102.431708,8.37821396 102.563306,8.64173259 102.651037,9.0809303 C102.738769,9.43228847 102.738769,9.87148618 102.738769,10.3106839 L102.738769,13.9560249 C102.738769,14.7465808 102.738769,15.5371366 102.651037,16.5033716 C102.563306,17.381767 102.431708,18.2601624 102.124647,18.9628788 L104.01088,18.9628788 C103.79155,18.3040822 103.659953,17.6013659 103.572221,16.7668902 C103.484489,15.9763344 103.484489,15.2296982 103.484489,14.5709017 L103.484489,10.2228443 C103.484489,10.091085 103.484489,10.0032455 103.572221,10.0032455 C103.659953,10.0032455 103.703818,10.091085 103.79155,10.2228443 L109.888908,19.1385579 L111.073287,19.1385579 C111.073287,18.6115206 111.073287,18.1284031 111.073287,17.5574461 L111.073287,10.7498816 C111.073287,10.3106839 111.161018,9.87148618 111.204884,9.43228847 C111.292616,8.99309076 111.424214,8.55389304 111.555811,8.20253488 L109.888908,8.20253488 C109.932774,8.29037442 110.108237,8.55389304 110.152103,8.86133144 L110.152103,8.86133144 Z" fill="#000000"></path>
                        <path d="M116.381058,9.0809303 C116.46879,8.72957213 116.512656,8.33429419 116.68812,8.07077556 L114.494825,8.07077556 C114.626423,8.37821396 114.801887,8.72957213 114.845752,9.0809303 C114.845752,9.43228847 114.845752,9.87148618 114.845752,10.2667641 L114.845752,16.7229705 C114.845752,17.0743286 114.845752,17.5135263 114.845752,17.9088043 C114.758021,18.2601624 114.714155,18.6554404 114.494825,18.918959 L116.68812,18.918959 C116.556522,18.6115206 116.381058,18.2601624 116.381058,17.9088043 C116.293327,17.5574461 116.293327,17.1182484 116.293327,16.7229705 L116.293327,10.2228443 C116.337192,9.87148618 116.337192,9.52012801 116.381058,9.0809303 L116.381058,9.0809303 Z" fill="#000000"></path>
                        <path d="M128.224846,9.0809303 C128.312578,8.64173259 128.356444,8.33429419 128.531908,8.07077556 L126.338613,8.07077556 C126.470211,8.37821396 126.645675,8.72957213 126.645675,9.0809303 C126.645675,9.43228847 126.645675,9.87148618 126.645675,10.2667641 L126.645675,12.9897899 C126.645675,13.6485865 126.645675,14.3073831 126.557943,14.9661796 C126.557943,15.9763344 126.338613,16.7668902 125.987686,17.381767 C125.636759,17.9527241 124.978771,18.2601624 124.013722,18.2601624 C122.259086,18.2601624 121.337903,17.2500077 121.381769,15.3614576 L121.381769,10.3106839 C121.381769,9.95932572 121.381769,9.52012801 121.469501,9.12485007 C121.557232,8.68565236 121.601098,8.37821396 121.776562,8.11469533 L119.583268,8.11469533 C119.714865,8.42213373 119.890329,8.7734919 119.890329,9.12485007 C119.890329,9.47620824 119.978061,9.91540595 119.978061,10.3106839 L119.978061,16.3276925 C120.109658,18.3040822 121.206305,19.2263974 123.18027,19.2263974 C123.969856,19.2263974 124.540112,19.0946381 125.154235,18.8750392 C125.680625,18.6554404 126.119284,18.348002 126.382479,18.0844834 C126.470211,17.9527241 126.514077,17.9527241 126.601809,17.9527241 C126.689541,17.9527241 126.689541,17.9527241 126.689541,18.0405636 L126.601809,19.1385579 L128.575773,19.0507183 C128.444176,18.7432799 128.268712,18.3919218 128.268712,18.0405636 C128.180981,17.6892054 128.180981,17.2500077 128.180981,16.8547298 L128.180981,10.3985234 C128.137115,9.87148618 128.137115,9.52012801 128.224846,9.0809303 L128.224846,9.0809303 Z" fill="#000000"></path>
                        <path d="M140.463427,15.8884948 C140.463427,16.4155321 140.463427,16.8986495 140.463427,17.4696066 C140.463427,18.0405636 140.33183,18.4797613 140.156366,19.0067986 L142.56899,19.0067986 C142.437392,18.6554404 142.261929,18.2601624 142.218063,17.9088043 C142.130331,17.5574461 142.086465,17.1182484 142.086465,16.7229705 C141.954867,14.6148215 141.954867,12.594512 141.954867,10.486363 C141.954867,10.0471653 141.954867,9.60796755 141.954867,9.16876984 C141.954867,8.72957213 142.086465,8.37821396 142.261929,8.07077556 L140.682757,8.07077556 C140.463427,8.07077556 140.33183,8.15861511 140.244098,8.29037442 C140.156366,8.42213373 140.1125,8.59781282 140.024769,8.81741167 L137.12962,15.9763344 C137.041889,16.1080937 137.041889,16.1959332 136.998023,16.2837728 C136.910291,16.3716123 136.866425,16.4155321 136.778693,16.4155321 C136.690962,16.4155321 136.690962,16.3276925 136.647096,16.1959332 C136.559364,16.0641739 136.559364,15.9763344 136.515498,15.844575 L134.059009,8.29037442 C134.059009,8.15861511 133.971277,8.15861511 133.839679,8.07077556 C133.751948,8.07077556 133.62035,7.98293602 133.532618,7.98293602 L131.514788,7.98293602 C131.734117,8.11469533 131.821849,8.20253488 131.865715,8.33429419 C131.865715,8.4660535 131.953446,8.64173259 131.953446,8.90525121 L131.953446,13.1215492 C131.953446,14.0877842 131.953446,15.0979389 131.865715,16.1959332 C131.777983,16.7229705 131.734117,17.1621682 131.646385,17.5574461 C131.558653,17.9966438 131.427056,18.3040822 131.295458,18.5236811 L131.16386,18.7432799 L133.137825,18.7432799 C133.006228,18.4358415 132.830764,17.9966438 132.830764,17.5135263 C132.743032,16.9864891 132.743032,16.4155321 132.743032,15.7567355 L132.743032,10.2228443 C132.743032,10.091085 132.743032,9.91540595 132.743032,9.87148618 C132.743032,9.73972686 132.830764,9.73972686 132.87463,9.73972686 C132.918496,9.73972686 133.006228,9.82756641 133.093959,10.0471653 C133.181691,10.1789246 133.225557,10.3985234 133.313289,10.7059618 L136.427766,19.1385579 L140.156366,10.091085 C140.244098,9.95932572 140.287964,9.87148618 140.375696,9.78364663 C140.463427,9.78364663 140.507293,9.87148618 140.507293,9.91540595 C140.507293,10.0032455 140.507293,10.0471653 140.507293,10.1350048 L140.507293,15.9324146 L140.463427,15.9324146 L140.463427,15.8884948 Z" fill="#000000"></path>
                        <path d="M44.7919393,14.4830621 L44.7919393,14.4830621 L44.7919393,14.4830621 C44.7919393,14.3952226 44.7919393,14.3952226 44.7042075,14.3513028 L44.7042075,14.3513028 L44.7042075,14.3513028 L44.7042075,14.3513028 C44.4848781,14.131704 44.0462193,14.2634633 43.5198287,14.5709017 C43.0811699,14.9222598 42.6425111,15.3175378 42.1599864,15.5371366 C42.1599864,15.5371366 42.0283887,15.6249762 41.8529252,15.668896 C41.7651934,15.668896 41.7651934,15.7567355 41.7213276,15.7567355 L41.7213276,15.7567355 C41.2826687,15.9763344 40.4930829,16.2837728 40.1421558,16.0641739 L40.054424,16.0641739 C40.054424,16.0641739 40.054424,16.0641739 39.9666923,15.9763344 L39.9666923,15.9763344 C39.9666923,15.9763344 39.8789605,15.8884948 39.8789605,15.844575 L39.8789605,15.844575 C39.7473629,15.6249762 39.7473629,15.273618 39.7473629,15.0540192 C39.7473629,14.702661 40.054424,14.2634633 40.054424,13.8681853 C40.054424,13.6485865 39.9666923,13.3411481 39.8350946,13.1215492 C39.703497,12.7701911 39.0893746,12.9019504 39.0893746,12.9019504 C38.957777,12.9897899 38.7823135,13.0337097 38.6507158,13.1215492 C38.3436547,13.3411481 38.212057,13.6485865 37.9927276,13.9121051 C37.0276782,15.2296982 36.1064947,16.5472914 34.4395912,16.9864891 C34.0886641,17.0743286 33.4306759,16.9864891 33.2113465,16.7668902 C32.9920171,16.5472914 33.1236147,15.8884948 33.2990783,15.5371366 C33.5184077,15.0979389 33.8693347,14.6587412 34.1763959,14.3073831 C34.5273229,13.7803458 34.4834571,13.1215492 34.0447982,12.8580306 C33.9570665,12.8580306 33.9570665,12.7701911 33.9132006,12.7701911 C33.5622735,12.5505922 33.1236147,12.6823515 32.7288218,12.8580306 C32.7288218,12.8580306 32.7288218,12.8580306 32.64109,12.8580306 C32.2024312,13.0776295 31.8515042,13.4289876 31.6760406,13.6485865 L31.6760406,13.6485865 L31.6760406,13.6485865 L31.5883089,13.736426 C30.4916618,15.0540192 30.2284665,16.1520134 30.2723324,17.0304089 L30.1846006,17.0304089 C29.8775395,16.9425693 29.6143442,16.8986495 29.307283,16.9425693 C28.5176971,17.0743286 27.7719771,16.9425693 27.4210501,16.4155321 C27.1139889,16.0641739 27.070123,15.6249762 27.1139889,15.0540192 C27.464916,13.2533085 27.9913066,11.1890793 28.6492948,8.90525121 C29.0002218,7.67549762 29.4388807,6.4896638 29.8336736,5.25991022 C30.1846006,4.24975548 30.5793936,3.23960075 30.8425889,2.14160647 C30.9741865,1.70240876 30.7548571,1.04361219 30.4916618,0.780093567 C30.4039301,0.692254025 30.1846006,0.648334254 29.9652712,0.648334254 C29.6582101,0.648334254 29.307283,0.736173796 29.0879536,0.955772651 C28.4299654,1.39497036 27.9035748,1.96592739 27.3333183,2.62472395 C25.7541466,4.38151479 24.131109,6.13830564 22.5080713,7.89509648 C21.4991561,8.99309076 20.4902408,10.1350048 19.3935937,11.2329991 C19.1742643,11.4525979 18.8672031,11.7600363 18.6478737,11.8917956 C18.4285443,12.023555 18.3408126,12.023555 18.2969467,12.023555 C18.2092149,12.023555 18.165349,12.023555 18.0776173,11.6721968 C18.0776173,11.4525979 17.9898855,11.1451595 18.0776173,10.9255607 C18.2092149,10.3985234 18.3846784,9.82756641 18.4285443,9.34444892 C18.6478737,8.55389304 18.8672031,7.67549762 18.9988008,6.88494174 C19.2181302,5.78694747 19.4374596,4.55719388 19.5251914,3.23960075 C19.5251914,2.66864372 19.305862,1.7902483 18.7794714,1.4828099 C18.6917396,1.4828099 18.6917396,1.39497036 18.6478737,1.39497036 C17.9898855,1.17537151 17.2002996,1.61456922 16.8493726,1.92200761 L16.6739091,1.92200761 C16.5861773,2.00984716 16.5423114,2.00984716 16.5423114,2.00984716 C16.6300432,2.14160647 16.5423114,2.14160647 16.5423114,2.14160647 C14.3490173,3.89839731 12.6382479,6.05046609 10.9713444,8.24645465 C10.8836127,8.33429419 10.8836127,8.37821396 10.8397468,8.4660535 C10.5326856,8.81741167 10.3133562,9.12485007 9.96242915,8.99309076 C9.65536798,8.86133144 9.65536798,8.68565236 9.8308315,8.11469533 C9.8308315,8.02685579 9.91856327,7.89509648 9.91856327,7.80725694 C10.4449538,5.69910793 10.7081491,3.50311937 10.006295,1.13145174 C9.69923386,0.340895856 9.3483068,-0.405740252 8.12006211,0.253056314 C5.35651156,1.57064945 2.24203396,3.32744029 0.224203396,6.35790449 L0.136471632,6.44574403 C-0.17058954,6.97278129 0.136471632,7.32413946 0.136471632,7.32413946 C0.57513045,7.89509648 0.882191622,8.29037442 1.32085044,8.29037442 C1.75950926,8.29037442 2.06657043,7.93901625 2.50522925,7.32413946 C3.60187629,5.78694747 5.13718215,4.46935434 7.06728095,3.32744029 C7.59367153,3.02000189 8.03233035,3.32744029 8.03233035,3.98623685 C8.03233035,6.31398472 7.46207389,8.68565236 6.80408566,10.8816409 L6.58475625,11.7600363 C6.36542684,12.5066724 6.05836567,13.2972283 5.61970685,14.2195435 C5.2687798,15.0100994 4.83012098,15.8884948 4.43532805,16.6351309 C4.21599864,17.1621682 3.99666923,17.6013659 3.77733982,17.9966438 C3.338681,18.9628788 3.47027865,19.6655951 4.21599864,20.0169533 C4.43532805,20.1047928 4.56692569,20.1487126 4.7862551,20.1487126 C5.31264568,20.1487126 5.66357274,19.7095149 5.97063391,19.3581567 L6.05836567,19.2703172 C6.14609743,19.1824776 6.14609743,19.1385579 6.18996332,19.0507183 L6.27769508,18.9628788 L6.49702449,18.6115206 C8.163928,16.0641739 9.8308315,13.4729074 11.5416009,10.9255607 C12.9014432,8.72957213 14.2174197,6.84102197 15.972055,5.21599044 C16.0597867,5.1281509 16.1036526,5.08423113 16.2791161,4.99639159 L16.2791161,4.99639159 L16.2791161,4.99639159 C16.3668479,4.90855205 16.8055067,4.77679273 16.9371044,5.1281509 C17.0248361,5.25991022 17.0248361,5.4355893 17.0248361,5.47950907 C17.0248361,6.05046609 16.8932385,6.66534289 16.7177749,7.28021968 C15.6211279,10.9255607 14.6999444,14.1756237 13.734895,17.0743286 C13.5155656,17.7331252 13.4278338,18.3919218 14.1735538,18.8750392 C14.3928832,19.0067986 14.5244809,19.0946381 14.7438103,19.0946381 C15.1824691,19.0946381 15.4895303,18.7871997 15.7527255,18.5236811 L15.8404573,18.4358415 C16.7177749,17.4696066 17.5950926,16.5472914 18.4724102,15.5371366 C19.2619961,14.5709017 20.1393137,13.5607469 20.9288996,12.6384318 C22.4642055,10.8377211 24.0433772,8.90525121 25.7102807,7.06062083 L25.7980125,6.97278129 C25.7980125,6.97278129 26.3682689,6.75318243 26.5437325,7.19238014 L26.5437325,7.28021968 L26.5437325,7.28021968 C26.5437325,7.411979 26.5437325,7.49981854 26.5437325,7.58765808 C26.3244031,8.37821396 26.0173419,9.12485007 25.7541466,9.91540595 C25.4470854,10.8816409 25.0961584,11.8039561 24.7890972,12.8141108 C24.482036,13.6925063 24.2627066,14.7905005 24.4381701,15.7128157 C24.7452313,17.6013659 26.3244031,19.0067986 28.1667701,19.0067986 C28.8247583,19.0067986 29.3950148,18.8750392 29.9652712,18.4797613 C30.1846006,18.348002 30.3161983,18.0405636 30.4916618,17.8209647 C30.7109912,18.3919218 31.0619183,18.6993602 31.0619183,18.6993602 C31.8076383,19.2703172 32.64109,19.489916 33.7377371,19.2263974 C34.3079935,19.0946381 34.8343841,18.6993602 35.4046406,18.5676008 C35.62397,18.4797613 36.0626288,18.4797613 36.1942264,18.6554404 C36.3258241,18.7871997 36.5012876,19.2263974 36.4135559,19.4459963 C36.1064947,19.9730335 35.7555676,20.5439905 35.4046406,21.027108 C34.8343841,21.9055034 34.0886641,22.6960593 33.5184077,23.6622943 C32.8604194,24.8481281 32.2024312,25.9900422 31.6321747,27.2197957 C31.1057842,28.31779 30.7548571,29.4597041 31.1057842,30.7333774 C31.2373818,31.3043345 31.4567112,31.963131 32.1146994,31.963131 C32.2024312,31.963131 32.2462971,31.963131 32.3340289,31.8752915 C32.4217606,31.7874519 33.2990783,31.2164949 33.9132006,29.8989018 L33.9132006,29.8989018 C35.0975794,27.4393946 36.2380923,24.8920479 37.3347394,22.3447012 C37.6418005,21.6859046 37.9927276,21.1149476 38.4313864,20.5879103 C38.4313864,20.5879103 38.4313864,20.5879103 38.4313864,20.5000708 C38.4313864,20.4122312 38.5191182,20.4122312 38.5191182,20.4122312 C38.957777,19.9730335 40.2737535,18.6554404 41.0633393,18.0844834 L41.0633393,18.0844834 C41.3704005,17.8648845 41.5897299,17.7331252 41.8529252,17.6452857 C42.8179746,17.2060879 43.5198287,16.6351309 44.0462193,15.9763344 C44.0462193,15.8884948 44.133951,15.8884948 44.133951,15.844575 L44.2216828,15.7567355 C44.3532805,15.5371366 44.528744,15.3175378 44.528744,15.1857785 C44.6164757,14.9661796 44.6164757,14.8344203 44.6164757,14.6587412 C44.6164757,14.6587412 44.6164757,14.5709017 44.6164757,14.5269819 L44.6164757,14.5269819 L44.6164757,14.5269819 C44.879671,14.6587412 44.7919393,14.5709017 44.7919393,14.4830621 L44.7919393,14.4830621 Z" fill="#BA0C2F"></path>
                    </g>
                </g>
            </g>
        </g>
    </g>
</svg>