<?xml version="1.0" encoding="UTF-8"?><svg xmlns="http://www.w3.org/2000/svg" viewBox="0 0 62.26 60.66"><defs><style>.d{fill:#414042;font-family:OpenSans-Semibold, Open Sans;font-size:26.38px;font-weight:700;}.e{fill:none;stroke:#414042;stroke-miterlimit:10;stroke-width:1.82px;}</style></defs><g id="a"/><g id="b"><g id="c"><g><g><circle class="e" cx="31.08" cy="18.45" r="17.54"/><text class="d" transform="translate(23.55 26.51)"><tspan x="0" y="0">$</tspan></text></g><path class="e" d="M11.04,34.94s5.83,6.86,9.39,7.9c5.18,3.24,6.99,6.86,7.19,10.62,.19,3.76-1.3,6.28-1.3,6.28h-7.25v-2.14s0-3.56-10.1-9.78C-1.14,41.61,1.13,28.04,1.13,28.04c0,0,2.33,.3,2.91,2.18s-1.14,11.72,9.5,14.12c0,0-5.7-5.92-6.13-8.34-.58-3.26,3.63-1.05,3.63-1.05Z"/><path class="e" d="M51.23,34.94s-5.83,6.86-9.39,7.9c-5.18,3.24-6.99,6.86-7.19,10.62-.19,3.76,1.3,6.28,1.3,6.28h7.25v-2.14s0-3.56,10.1-9.78,7.84-19.79,7.84-19.79c0,0-2.33,.3-2.91,2.18s1.14,11.72-9.5,14.12c0,0,5.7-5.92,6.13-8.34,.58-3.26-3.63-1.05-3.63-1.05Z"/></g></g></g></svg>