<?xml version="1.0" encoding="UTF-8"?><svg xmlns="http://www.w3.org/2000/svg" viewBox="0 0 54.64 59.63"><defs><style>.d,.e{fill:none;stroke:#414042;stroke-miterlimit:10;stroke-width:1.82px;}.e{stroke-linecap:round;}.f{fill:#414042;}</style></defs><g id="a"/><g id="b"><g id="c"><g><path class="e" d="M1.02,23.94c-.07-.78-.11-1.56-.11-2.35,0-3.42,.7-6.73,1.88-9.88,.12-.32,.43-.51,.76-.52,1.99-.05,3.89-.88,5.48-2.34,1.82-1.66,2.75-3.92,2.77-6.2,0-.95,.73-1.74,1.68-1.74h27.74c.95,0,1.67,.79,1.68,1.74,.02,2.28,.95,4.55,2.77,6.2,1.59,1.46,3.42,2.29,5.4,2.34,.34,0,.64,.2,.76,.52,1.18,3.15,1.88,6.46,1.88,9.88,0,17.3-18.04,31.9-24.3,36.44-1.26,.92-2.95,.92-4.22,0-5.48-3.98-20-15.67-23.52-30.13"/><path class="d" d="M7.62,14.12c.09-.25,.34-.41,.61-.42,1.6-.04,3.13-.71,4.41-1.88,1.46-1.34,2.21-3.16,2.23-4.99,0-.77,.59-1.4,1.35-1.4h22.32c.77,0,1.35,.63,1.35,1.4,.02,1.83,.77,3.66,2.23,4.99,1.28,1.17,2.75,1.84,4.34,1.88,.27,0,.52,.16,.61,.42,.95,2.54,1.52,5.2,1.52,7.95,0,13.92-14.51,25.66-19.55,29.32-1.02,.74-2.38,.74-3.39,0-5.04-3.65-19.55-15.4-19.55-29.32,0-2.75,.57-5.42,1.51-7.95Z"/><g><rect class="d" x="17.47" y="22.44" width="19.73" height="13.6" rx=".63" ry=".63"/><path class="d" d="M24.46,11.6h5.75c1.94,0,3.51,1.57,3.51,3.51v7.33h-12.77v-7.33c0-1.94,1.57-3.51,3.51-3.51Z"/><circle class="f" cx="27.33" cy="28.49" r="1.76"/><rect class="f" x="26.64" y="29.34" width="1.39" height="3.43" rx=".38" ry=".38"/></g></g></g></g></svg>