<?xml version="1.0" encoding="UTF-8"?><svg xmlns="http://www.w3.org/2000/svg" viewBox="0 0 60.46 59.14"><defs><style>.d{fill:none;stroke:#414042;stroke-miterlimit:10;stroke-width:1.65px;}.e{fill:#231f20;}.f{fill:#414042;}</style></defs><g id="a"/><g id="b"><g id="c"><g><path class="d" d="M13.23,5.83h14.49V1.47c0-.36,.29-.65,.65-.65h5.67c.36,0,.65,.29,.65,.65V5.83s3.31,.89,5.19,1.7l2.26-3.73c.19-.31,.59-.41,.89-.22l4.64,2.83c.29,.18,.4,.56,.24,.86l-1.95,3.66s2.95,2.68,3.76,3.85l4-2.04c.31-.16,.7-.04,.87,.27l2.62,4.8c.17,.3,.06,.68-.23,.87l-3.41,2.09,1.34,5.37h4.09c.36,0,.65,.29,.65,.65v5.67c0,.36-.29,.65-.65,.65h-4.36s-.91,4.07-1.34,5.19l3.66,2.18c.3,.18,.41,.57,.24,.87l-2.76,5.02c-.18,.33-.6,.44-.91,.24l-3.44-2.14s-3.07,2.79-4.11,3.76l2.03,3.67c.17,.3,.07,.68-.22,.86l-4.71,2.97c-.32,.2-.74,.09-.92-.24l-2.08-3.78s-3.97,1.21-5.54,1.73l.07,4.23c0,.36-.29,.66-.65,.66h-5.58c-.35,0-.64-.28-.65-.64l-.08-4.64H13.23"/><circle class="f" cx="11.35" cy="5.87" r="2.47"/><circle class="e" cx="11.35" cy="5.87" r="1.69"/><circle class="f" cx="11.35" cy="52.91" r="2.47"/><circle class="e" cx="11.35" cy="52.91" r="1.69"/><circle class="d" cx="31.47" cy="29.61" r="3.59"/><circle class="f" cx="2.47" cy="41.72" r="2.47"/><circle class="e" cx="2.47" cy="41.72" r="1.69"/><path class="d" d="M4.16,17.43h15.9l3.8,2.67c.42,.29,.96,.27,1.39,0,2.35-1.56,5.3-2.28,8.43-1.71,4.53,.81,8.2,4.42,9.08,8.94,1.42,7.31-4.14,13.71-11.2,13.71-2.38,0-4.59-.73-6.42-1.97-.43-.29-.99-.31-1.42,0l-3.66,2.67H4.16"/><line class="d" x1="12.05" y1="29.61" x2="28.09" y2="29.61"/><circle class="f" cx="3.42" cy="17.43" r="2.47"/><circle class="e" cx="3.42" cy="17.43" r="1.69"/><circle class="f" cx="11.31" cy="29.61" r="2.47"/><circle class="e" cx="11.31" cy="29.61" r="1.69"/></g></g></g></svg>