<?xml version="1.0" encoding="UTF-8"?><svg xmlns="http://www.w3.org/2000/svg" viewBox="0 0 55.9 64.86"><defs><style>.d,.e{stroke-width:1.65px;}.d,.e,.f,.g{fill:none;stroke:#414042;stroke-miterlimit:10;}.d,.f{stroke-linecap:round;}.f{stroke-width:.9px;}.g{stroke-width:.84px;}.h{fill:#414042;}</style></defs><g id="a"/><g id="b"><g id="c"><g><path class="e" d="M48.14,22.37c.04-.57,.06-1.13,.05-1.69,0-.37-.26-.69-.62-.79l-2.85-.79c-.29-.08-.51-.31-.58-.6l-.72-2.97c-.07-.29,.02-.6,.24-.8l2.17-2.01c.27-.25,.35-.65,.19-.98-.52-1.03-1.12-2.01-1.8-2.93-.22-.3-.62-.41-.96-.28l-2.77,1.04c-.28,.11-.6,.05-.83-.14l-2.33-1.98c-.23-.19-.34-.5-.28-.79l.57-2.9c.07-.36-.1-.74-.43-.9-.97-.5-1.99-.93-3.05-1.26-.35-.11-.74,.03-.94,.34l-1.64,2.46c-.17,.25-.46,.39-.76,.37l-3.04-.25c-.3-.02-.56-.21-.69-.48l-1.23-2.69c-.15-.34-.51-.54-.88-.49-1.15,.17-2.27,.44-3.35,.8-.35,.12-.58,.46-.56,.83l.12,2.95c.01,.3-.14,.59-.4,.74l-2.61,1.59c-.26,.16-.58,.16-.84,.01l-2.57-1.45c-.32-.18-.73-.14-.99,.12-.82,.8-1.57,1.67-2.24,2.61-.22,.3-.2,.71,.03,1l1.83,2.32c.19,.24,.23,.55,.11,.83l-1.17,2.82c-.12,.28-.37,.47-.67,.51l-2.94,.34c-.37,.04-.67,.32-.73,.68-.1,.59-.18,1.2-.22,1.81-.04,.54-.05,1.08-.05,1.62,0,.37,.26,.69,.61,.79l2.84,.8c.29,.08,.51,.31,.58,.61l.71,2.97c.07,.29-.02,.6-.25,.8l-2.18,2c-.27,.25-.35,.66-.19,.99,.52,1.03,1.12,2.02,1.8,2.94,.22,.3,.62,.41,.96,.28l2.77-1.03c.28-.1,.6-.05,.83,.15l2.32,1.98c.23,.2,.33,.5,.27,.8l-.58,2.9c-.07,.36,.1,.74,.43,.91,1.01,.52,2.07,.97,3.18,1.32,.35,.11,.74-.03,.95-.34l1.63-2.47c.17-.25,.46-.39,.76-.37l3.04,.24c.3,.02,.56,.21,.69,.48l1.23,2.69c.15,.34,.52,.54,.88,.48,1.15-.18,2.27-.45,3.35-.81,.35-.12,.58-.46,.56-.83l-.13-2.95c-.01-.3,.14-.58,.39-.74l2.6-1.6c.26-.16,.58-.16,.84-.02l2.58,1.44c.32,.18,.73,.13,.99-.13,.82-.81,1.56-1.68,2.23-2.62,.22-.3,.2-.71-.03-1l-1.84-2.31c-.19-.24-.23-.55-.12-.83l1.16-2.83c.11-.28,.37-.47,.67-.51l2.94-.34c.37-.04,.67-.32,.73-.69,.09-.58,.16-1.16,.21-1.75Z"/><path class="h" d="M39.02,13.52c-4.15-6.26-12.64-7.82-18.73-3.52-5.99,4.23-7.42,12.52-3.18,18.52,4.3,6.09,12.8,7.47,18.81,2.97,5.55-4.15,6.94-12.2,3.1-17.97Zm-6.3,18.34c-4.35,1.93-9.59,1.01-13.01-2.3-5.61-5.42-4.7-14.23,1.33-18.49,5.41-3.81,12.89-2.52,16.7,2.89,4.28,6.06,2.14,14.72-5.02,17.91Z"/><path class="d" d="M50.82,20.86h1.32c1.63,0,2.94,1.32,2.94,2.94v26.08c0,1.63-1.32,2.94-2.94,2.94H3.77c-1.63,0-2.94-1.32-2.94-2.94V23.8c0-1.63,1.32-2.94,2.94-2.94h1.05"/><g><line class="d" x1="19.21" y1="58.15" x2="21.38" y2="53.59"/><line class="d" x1="36.69" y1="58.15" x2="34.52" y2="53.59"/></g><path class="d" d="M15.7,58.85h24.5c1.03,0,1.87,.84,1.87,1.87v3.31H13.83v-3.31c0-1.03,.84-1.87,1.87-1.87Z"/><g><line class="d" x1="1.59" y1="47.14" x2="35.47" y2="47.14"/><line class="d" x1="41.13" y1="47.14" x2="38.76" y2="47.14"/><line class="d" x1="54.31" y1="47.14" x2="45.35" y2="47.14"/></g><g><path class="f" d="M34.56,28.86v-3.1c0-.59-.14-1.14-.38-1.63"/><line class="f" x1="23.81" y1="25.96" x2="23.81" y2="28.55"/><line class="f" x1="31.91" y1="25.96" x2="31.91" y2="28.55"/><path class="f" d="M21.29,28.86v-3.1c0-2.04,1.66-3.7,3.7-3.7h.51"/><path class="f" d="M33.4,23.07c-.66-.63-1.56-1.01-2.54-1.01h-.51"/><path class="f" d="M29.99,21.12v.98c0,.91-.74,1.65-1.65,1.65h-.86c-.91,0-1.65-.74-1.65-1.65v-.98"/><path class="g" d="M25.47,12.09s-2.73,.53-1.59,4.31v1.21c0,2.26,1.79,4.09,4,4.09h0c2.21,0,4-1.83,4-4.09v-1.15s.66-2.06-.66-3.94c-1.33-1.87-5.02-1.9-5.74-.42Z"/><path class="g" d="M25.44,11.97v1.56c0,1,.81,1.81,1.81,1.81h2.8s1.47-.17,1.98,.79"/><path class="g" d="M24.13,16.37s1.61-.35,1.93-1.3"/></g></g></g></g></svg>