<?xml version="1.0" encoding="UTF-8"?><svg xmlns="http://www.w3.org/2000/svg" xmlns:xlink="http://www.w3.org/1999/xlink" viewBox="0 0 61.23 61.68"><defs><style>.h,.i,.j,.k,.l,.m{fill:none;}.h,.i,.j,.l,.m{stroke:#414042;stroke-miterlimit:10;}.h,.j,.m{stroke-linecap:round;}.h,.l{stroke-width:1.87px;}.i{stroke-width:1.75px;}.j{stroke-width:1.4px;}.n{clip-path:url(#e);}.m{stroke-width:1.57px;}.o{clip-path:url(#g);}</style><clipPath id="e"><rect class="k" x="22.48" width="8.16" height="16.25"/></clipPath><clipPath id="g"><rect class="k" x="30.64" width="8.16" height="16.25"/></clipPath></defs><g id="a"/><g id="b"><g id="c"><g><path class="l" d="M4.71,16.96v-3.48c0-.47,.41-.84,.93-.84h7.87c.51,0,.93,.38,.93,.84v3.48"/><path class="h" d="M7.61,28.95H1.93c-.55,0-.99-.44-.99-.99v-10.69c0-.55,.44-.99,.99-.99h15.04c.55,0,.99,.44,.99,.99v10.69c0,.55-.44,.99-.99,.99h-5.73"/><path class="h" d="M6.88,22.96H3.11c-1.2,0-2.18-.97-2.18-2.18v-1.98"/><path class="h" d="M17.96,18.8v1.98c0,1.2-.97,2.18-2.18,2.18h-3.48"/><rect class="h" x="6.88" y="21.17" width="5.42" height="3.92" rx=".58" ry=".58"/><circle class="h" cx="51.58" cy="20.13" r="8.72"/><line class="j" x1="51.58" y1="15.46" x2="51.58" y2="23.13"/><polyline class="j" points="47.42 20.72 51.58 18.42 55.64 20.72"/><polyline class="j" points="49.57 24.28 51.55 23.18 53.49 24.28"/><g><path class="h" d="M44.85,60.75v-6.45c0-1.22-.28-2.38-.79-3.4"/><line class="h" x1="22.48" y1="54.71" x2="22.48" y2="60.1"/><line class="h" x1="39.33" y1="54.71" x2="39.33" y2="60.1"/><path class="h" d="M17.22,60.75v-6.45c0-4.25,3.45-7.7,7.7-7.7h1.07"/><path class="h" d="M42.43,48.69c-1.38-1.3-3.24-2.1-5.28-2.1h-1.07"/><path class="h" d="M35.34,44.64v2.05c0,1.9-1.54,3.44-3.44,3.44h-1.8c-1.9,0-3.44-1.54-3.44-3.44v-2.05"/><path class="i" d="M25.93,25.84s-5.69,1.1-3.32,8.96v2.52c0,4.7,3.72,8.51,8.32,8.51h0c4.59,0,8.32-3.81,8.32-8.51v-2.4s1.38-4.3-1.38-8.2c-2.76-3.9-10.44-3.96-11.94-.88Z"/><path class="i" d="M25.87,25.59v3.25c0,2.08,1.68,3.76,3.76,3.76h5.83s3.07-.36,4.12,1.65"/><path class="i" d="M23.13,34.74s3.35-.74,4.02-2.71"/></g><g><g id="d"><g class="n"><path class="m" d="M30.82,1.54s-1.05-.78-3.04-.75c-1.99,.03-4.46,1.58-4.51,5.1,0,0-.05,1.85,1.02,3.12l6.42,6.46"/></g></g><g id="f"><g class="o"><path class="m" d="M30.47,1.54s1.05-.78,3.04-.75c1.99,.03,4.46,1.58,4.51,5.1,0,0,.05,1.85-1.02,3.12l-6.42,6.46"/></g></g></g><path class="m" d="M14.92,8.48s2.13-1.78,4.7-2.77"/><path class="m" d="M46.43,8.48s-2.13-1.78-4.7-2.77"/></g></g></g></svg>