<?xml version="1.0" encoding="UTF-8"?><svg xmlns="http://www.w3.org/2000/svg" viewBox="0 0 60.68 60.79"><defs><style>.d{stroke-miterlimit:10;}.d,.e{fill:none;stroke:#414042;stroke-linecap:round;stroke-width:1.81px;}.e{stroke-linejoin:round;}.f{fill:#414042;}</style></defs><g id="a"/><g id="b"><g id="c"><g><path class="e" d="M.91,18.52v-2.61c0-2.39,1.94-4.33,4.33-4.33H50.68c2.39,0,4.33,1.94,4.33,4.33v19.59"/><path class="e" d="M31.02,49.6H5.24c-2.39,0-4.33-1.94-4.33-4.33V22.65"/><rect class="f" x="4.89" y="14.62" width="2" height="2"/><rect class="f" x="8.91" y="14.62" width="2" height="2"/><rect class="f" x="12.92" y="14.62" width="2" height="2"/><polyline class="d" points="4.94 39.52 29.92 39.52 29.92 16.62 36.04 16.62 36.04 33.28"/><path class="d" d="M10.24,30.62h5.39c.18,0,.33,.15,.33,.33v8.57h-6.05v-8.57c0-.18,.15-.33,.33-.33Z"/><path class="d" d="M20.26,23.54h5.39c.18,0,.33,.15,.33,.33v15.64h-6.05v-15.64c0-.18,.15-.33,.33-.33Z"/><line class="d" x1="1.47" y1="43.46" x2="29.92" y2="43.46"/><polyline class="e" points="39.92 31.53 39.92 7.79 36.5 7.79 42.98 .91"/><polyline class="e" points="46.04 31.53 46.04 7.79 49.45 7.79 42.98 .91"/><path class="e" d="M48.84,1.62c2.86,0,5.18,2.32,5.18,5.18"/><line class="e" x1="22.7" y1="50.49" x2="19.93" y2="58.75"/><line class="e" x1="16.93" y1="59.67" x2="38.72" y2="59.67"/><line class="e" x1="34.46" y1="54.62" x2="35.78" y2="58.75"/><circle class="e" cx="44.03" cy="44.63" r="11.12"/><circle class="e" cx="44.03" cy="44.63" r="7.21"/><path class="e" d="M40.87,44.63c0-1.74,1.41-3.15,3.15-3.15"/><path class="e" d="M53.86,50.88l5.23,4.84c.91,.84,.9,2.34-.02,3.33h0c-.92,1-2.41,1.12-3.32,.28l-5.23-4.84"/></g></g></g></svg>