<?xml version="1.0" encoding="UTF-8"?><svg xmlns="http://www.w3.org/2000/svg" xmlns:xlink="http://www.w3.org/1999/xlink" viewBox="0 0 65.05 66.97"><defs><style>.p{stroke-width:.37px;}.p,.q,.r,.s,.t,.u,.v,.w{stroke:#414042;}.p,.q,.r,.x,.t,.u,.v,.w{fill:none;}.p,.r,.s,.t,.v{stroke-linecap:round;}.p,.t,.u{stroke-linejoin:round;}.q,.r,.s,.v,.w{stroke-miterlimit:10;}.q,.u{stroke-width:.59px;}.y{clip-path:url(#o);}.a`{clip-path:url(#m);}.aa{clip-path:url(#e);}.r,.s,.t,.v,.w{stroke-width:1.48px;}.s{fill:#fff;}.t,.u,.v,.w{fill-rule:evenodd;}.ab{clip-path:url(#i);}.ac{clip-path:url(#k);}.ad{clip-path:url(#g);}.ae{fill:#414042;}</style><clipPath id="e"><rect class="x" x="33.66" width="7.8" height="25.7"/></clipPath><clipPath id="g"><rect class="x" x="41.46" width="7.8" height="25.7"/></clipPath><clipPath id="i"><rect class="x" x="47.81" y="13.16" width="7.8" height="27.04"/></clipPath><clipPath id="k"><rect class="x" x="55.61" y="13.16" width="7.8" height="27.04"/></clipPath><clipPath id="m"><rect class="x" x="18.87" y="37.55" width="6.09" height="8.33"/></clipPath><clipPath id="o"><rect class="x" x="24.96" y="37.55" width="6.09" height="8.33"/></clipPath></defs><g id="a"/><g id="b"><g id="c"><g><path class="t" d="M38.23,54.03c-.79,.78-1.23,1.09-2.16,1.74l.62,4.84-7.59,2.76-2.64-4.11c-1.78,.16-3.55,.08-5.26-.23l-2.99,3.86-7.32-3.42,1.04-4.77c-1.34-1.12-2.54-2.42-3.56-3.88l-4.84,.62-2.76-7.59,4.11-2.64c-.16-1.78-.08-3.55,.23-5.26l-3.86-2.99,3.42-7.32,4.77,1.04c1.12-1.34,2.42-2.54,3.88-3.56l-.62-4.84,7.59-2.76,2.64,4.11h0c1.78-.16,3.55-.08,5.26,.23l2.99-3.86,7.32,3.42-1.04,4.77c1.34,1.12,2.54,2.42,3.56,3.88l4.84-.61,2.76,7.59-4.11,2.64c.13,1.4,.1,2.8-.07,4.17"/><path class="v" d="M38.47,34.42c-2.7-7.42-10.91-11.25-18.33-8.55-7.42,2.7-11.25,10.91-8.55,18.33,2.7,7.42,10.91,11.25,18.33,8.55,5.31-1.93,8.78-6.68,9.34-11.95"/><path class="w" d="M21.49,29.59c-5.37,1.95-8.14,7.89-6.18,13.26,1.95,5.37,7.89,8.14,13.26,6.18,5.37-1.95,8.14-7.89,6.18-13.26-1.95-5.37-7.89-8.14-13.26-6.18Z"/><g><g id="d"><g class="aa"><path class="s" d="M38.69,24.96V13.78c0-.26-.2-.48-.44-.48h-2.89c-.79,0-1.25-.98-.78-1.67L41.96,.74"/></g></g><g id="f"><g class="ad"><path class="s" d="M44.23,24.96V13.78c0-.26,.2-.48,.44-.48h2.89c.79,0,1.25-.98,.78-1.67L40.96,.74"/></g></g></g><g><g id="h"><g class="ab"><path class="v" d="M52.84,39.45v-13.85c0-.26-.2-.48-.44-.48h-2.89c-.79,0-1.25-.98-.78-1.67l7.37-9.56"/></g></g><g id="j"><g class="ac"><path class="v" d="M58.38,39.45v-13.85c0-.26,.2-.48,.44-.48h2.89c.79,0,1.25-.98,.78-1.67l-7.37-9.56"/></g></g></g><circle class="r" cx="51.26" cy="53.18" r="13.06"/><path class="v" d="M61.03,56.28c-1.31,4.02-5.08,6.92-9.53,6.92-5.54,0-10.02-4.49-10.02-10.02s4.49-10.02,10.02-10.02c4.38,0,8.1,2.81,9.47,6.72"/><polyline class="t" points="51.56 47.76 51.56 54.79 46.96 57.9"/><ellipse class="q" cx="24.96" cy="34.19" rx="2.75" ry="2.89"/><path class="u" d="M22.35,33.83s1.95,.75,3.31-.86c0,0,.71,.91,1.91,.51"/><g><g id="l"><g class="a`"><path class="u" d="M21.04,45.67l-1.64-1.64c-.21-.21-.29-.54-.19-.84l.9-3.2c.36-1.27,1.51-2.15,2.83-2.15h2.06"/></g></g><g id="n"><g class="y"><path class="u" d="M28.87,45.67l1.64-1.64c.21-.21,.29-.54,.19-.84l-.9-3.2c-.36-1.27-1.51-2.15-2.83-2.15h-2.06"/></g></g></g><polyline class="u" points="24.08 37.94 24.59 39.19 24.33 40.72"/><polyline class="u" points="26.01 37.89 25.44 39.23 25.72 40.72"/><polyline class="u" points="21.13 45.62 20.67 40.72 29.26 40.76 28.81 45.62"/><line class="p" x1="18.8" y1="45.74" x2="31.17" y2="45.74"/><line class="p" x1="24.3" y1="44.57" x2="25.75" y2="44.57"/><circle class="ae" cx="25.03" cy="43.1" r=".52"/></g></g></g></svg>