<svg id="Layer_1" data-name="Layer 1" xmlns="http://www.w3.org/2000/svg" viewBox="0 0 400 400"><defs><style>.cls-1{fill:#fff;}.cls-2{fill:#6a4cff;}.cls-3{fill:#4cc4ff;}</style></defs><rect class="cls-1" x="-75.34" y="-2746.79" width="2777.89" height="4120.23"/><path class="cls-2" d="M73.06,164.35a14.81,14.81,0,0,1,26,0s.53.87.81,1.47c2.37,5.08,0,8.55-2.56,14.13a47.28,47.28,0,0,1-5,8.19l-1.59,2.15c-1.48,2-3,4-4.32,6.07-3.73,5.8-6.33,12.37-4.09,21.14a19.65,19.65,0,0,0,5,9.28H63.93c-11.43,0-18.62-12.53-13-22.65Z"/><path class="cls-3" d="M115,225.14a14.7,14.7,0,0,1-6.81,1.64H96.06a7.11,7.11,0,0,1-3.53-.77c-2.23-1.26-5-3.86-6.42-9.39-1.91-7.47.21-13,3.62-18.31,1.26-2,2.65-3.82,4.1-5.76.56-.75,1.12-1.5,1.69-2.28a50.56,50.56,0,0,0,5.43-8.84,33,33,0,0,0,2.65-8.9l17.57,31.6a15.33,15.33,0,0,1-5.35,20.53Q115.4,224.92,115,225.14Z"/><path class="cls-2" d="M172.42,212h8.35l-15-39.42h-8.89L141.73,212h8.12l3.28-9h16ZM161.14,181.1,166.59,196h-10.9ZM192.65,212V184.66h-7.4V212Zm-8.29-36.31a4.56,4.56,0,1,0,4.56-4.61A4.57,4.57,0,0,0,184.36,175.71Zm32.88,8.84c-.55-.05-1.11-.11-1.72-.11-2.33,0-6.12.67-7.78,4.28v-4.06h-7.18V212H208V199.51c0-5.9,3.28-7.73,7.06-7.73a11.55,11.55,0,0,1,2.22.22ZM229.84,212V196c0-3,1.89-5.4,5.12-5.4s4.83,2.23,4.83,5.17V212h7.34V196c0-2.95,1.89-5.4,5.06-5.4,3.4,0,4.84,2.23,4.84,5.17V212h7.17V194.28c0-7.34-4.83-10.4-9.89-10.4a9.52,9.52,0,0,0-8.68,4.56c-1.39-2.94-4.39-4.56-8.12-4.56-3,0-6.5,1.45-8,4.12v-3.34h-7.06V212Zm47.25-16.79a5.93,5.93,0,0,1,6.12-5.4c4.22,0,6,2.67,6.11,5.4Zm13,7.11c-.88,2.45-2.78,4.17-6.22,4.17a6.67,6.67,0,0,1-6.9-6.22h19.57c0-.11.12-1.23.12-2.28,0-8.79-5.06-14.18-13.52-14.18-7,0-13.45,5.67-13.45,14.4,0,9.23,6.62,14.62,14.12,14.62,6.73,0,11.07-3.94,12.46-8.67Zm17.78-7.11a5.93,5.93,0,0,1,6.12-5.4c4.23,0,6,2.67,6.12,5.4Zm13,7.11c-.89,2.45-2.78,4.17-6.23,4.17a6.65,6.65,0,0,1-6.89-6.22h19.57c0-.11.11-1.23.11-2.28,0-8.79-5.06-14.18-13.51-14.18-7,0-13.46,5.67-13.46,14.4,0,9.23,6.62,14.62,14.13,14.62,6.72,0,11.06-3.94,12.45-8.67Zm21.5-25.85h-6.67v3.84c0,2.44-1.34,4.33-4.23,4.33H330v6.56h4.95V204c0,5.28,3.34,8.45,8.68,8.45a11,11,0,0,0,4.17-.67v-6.11a10.85,10.85,0,0,1-2.28.22c-2.12,0-3.23-.78-3.23-3.17V191.22h5.51v-6.56h-5.51Z"/></svg>