<svg id="Layer_1" data-name="Layer 1" xmlns="http://www.w3.org/2000/svg" viewBox="0 0 400 400"><defs><style>.cls-1{fill:#fff;}.cls-2{fill:#e27866;}.cls-3{fill:#347977;}.cls-4{fill:#50b4ca;}.cls-5{fill:#221f20;}</style></defs><rect class="cls-1" x="-75.34" y="-1426.79" width="2777.89" height="4120.23"/><g id="Layer_2" data-name="Layer 2"><g id="Layer_1-2" data-name="Layer 1-2"><polygon class="cls-2" points="108.48 199.18 71.31 209.15 71.31 199.85 108.48 189.88 108.48 199.18"/><polygon class="cls-3" points="108.48 216.84 71.31 226.8 71.31 217.51 108.48 207.54 108.48 216.84"/><path class="cls-4" d="M89.89,249.23a40.9,40.9,0,1,1,40.9-40.9h0A41,41,0,0,1,89.89,249.23Zm0-73.42a32.55,32.55,0,1,0,32.54,32.55v0A32.58,32.58,0,0,0,89.89,175.81Z"/><path class="cls-5" d="M167.14,222.72c-3.56,3-6.83,3-11.33,3h-11V191.1h10.68c4.15,0,8.09,0,11.1,3.36a8.26,8.26,0,0,1,2.06,5.71,7.78,7.78,0,0,1-4,6.85,7.91,7.91,0,0,1,5.72,8.06A9.9,9.9,0,0,1,167.14,222.72ZM156.7,198.84h-3.41v5.39h3.36c1.93,0,3.51-.57,3.51-2.77S158.53,198.84,156.7,198.84Zm1.11,12.78h-4.45V218h4.45c2.21,0,4.16-.77,4.16-3.34S159.79,211.62,157.81,211.62Z"/><path class="cls-5" d="M188.72,225.72V211.57c0-2.79-.79-5.41-4.15-5.41s-4.35,2.2-4.35,5.14v14.42h-7.79V191.1h7.79v11h0a7.25,7.25,0,0,1,6.7-3.29,9.46,9.46,0,0,1,7.07,2.86c2.47,2.85,2.47,5.94,2.47,9.5v14.52Z"/><path class="cls-5" d="M219.21,225.72V222.9h0a8.47,8.47,0,0,1-7.59,3.71c-8,0-13.05-6.19-13.05-13.9A13.14,13.14,0,0,1,211,198.86c.21,0,.42,0,.63,0a8.67,8.67,0,0,1,7.59,3.66h0v-2.77h7.84v26Zm-6.55-19.61a6.39,6.39,0,0,0-6.43,6.37v.33a6.5,6.5,0,1,0,13,.8,5.34,5.34,0,0,0,0-.8,6.38,6.38,0,0,0-6-6.7A4.34,4.34,0,0,0,212.66,206.11Z"/><path class="cls-5" d="M238,211.45v14.27h-7.76v-26h7.42v2.77h0a6.5,6.5,0,0,1,6.5-3.66v7.81C240.75,206.75,238,207.42,238,211.45Z"/><path class="cls-5" d="M265.28,225.72V222.9h0a8.42,8.42,0,0,1-7.56,3.71c-8,0-13.08-6.19-13.08-13.9a13.14,13.14,0,0,1,12.41-13.85c.22,0,.45,0,.67,0a8.68,8.68,0,0,1,7.56,3.66h0v-2.77h7.77v26Zm-6.55-19.61a6.39,6.39,0,0,0-6.41,6.39c0,.1,0,.21,0,.31a6.48,6.48,0,1,0,12.95,0h0a6.38,6.38,0,0,0-6-6.7A4.34,4.34,0,0,0,258.73,206.11Z"/><path class="cls-5" d="M287.09,205.64v20.08h-7.76V205.64H275.5v-5.91h3.83v-8.66h7.76v8.66h3.76v5.91Z"/><path class="cls-4" d="M317,212a13.94,13.94,0,0,1-10.12,3H303v10.85h-8.46V191.19h11.33c3.56,0,7.81.15,10.66,2.48a11.79,11.79,0,0,1,4.08,9.17A12.62,12.62,0,0,1,317,212Zm-10.66-13H303V207h3.61c2.89,0,5.51-.67,5.51-4.18s-2.94-4-5.83-4Z"/><path class="cls-4" d="M347.65,215.08H328.17a5.83,5.83,0,0,0,6.08,4.95,5.57,5.57,0,0,0,4.72-2.47h8a13.88,13.88,0,1,1,.89-5.19V213A12,12,0,0,1,347.65,215.08Zm-13.5-9.69a5.76,5.76,0,0,0-5.88,4.45h11.79A5.78,5.78,0,0,0,334.15,205.39Z"/></g></g></svg>