<svg id="Layer_1" data-name="Layer 1" xmlns="http://www.w3.org/2000/svg" viewBox="0 0 400 400"><defs><style>.cls-1{fill:#fff;}.cls-2{fill:#df2228;}</style></defs><rect class="cls-1" x="-1835.34" y="-546.79" width="2777.89" height="4120.23"/><path class="cls-2" d="M87.76,204a3.61,3.61,0,0,0,.83-2.5v-15a3.21,3.21,0,0,0-.83-2.53,3.5,3.5,0,0,0-2.54-.89H82.16v21.81h3.07a3.52,3.52,0,0,0,2.53-.89"/><path class="cls-2" d="M156.48,185.39a12.18,12.18,0,0,0-4.35-2.53,18.54,18.54,0,0,0-6.19-.93h-17.6l2.92,4v35.89l-2.92,4h17.6a18.26,18.26,0,0,0,6.19-.95,12.28,12.28,0,0,0,4.35-2.59,10.45,10.45,0,0,0,2.56-3.77,12.43,12.43,0,0,0,.83-4.5V193.57a12.1,12.1,0,0,0-.83-4.46,10.1,10.1,0,0,0-2.56-3.72M149.68,214a3.71,3.71,0,0,1-1.21,2.82,4.54,4.54,0,0,1-3.28,1.15h-3.74V189.6h3.74a4.54,4.54,0,0,1,3.28,1.15,3.71,3.71,0,0,1,1.21,2.82Z"/><path class="cls-2" d="M188.92,206.53a10.26,10.26,0,0,0,2.25-1.5,7.31,7.31,0,0,0,2.31-5.75v-8a20.5,20.5,0,0,0-.26-3,7.07,7.07,0,0,0-4.33-5.45,13.68,13.68,0,0,0-5.62-.95h-18v43.83h10.16V210.57h6a2.28,2.28,0,0,1,2.54,2.34c0,.57,0,12.51,0,12.86h10.36V213.38c0-2.1-.63-6.08-5.42-6.85m-5.76-7.7c0,2.3-.83,3.57-3.17,3.67h-4.55V189.12h4.05c1.14,0,3.72.18,3.67,3.46Z"/><path class="cls-2" d="M199.08,192v23.69c-.07,7.89,5.26,10.06,10,10.11H223v-8.16H211.12a1.77,1.77,0,0,1-1.86-2v-7.73h12.16v-8.07H209.26v-7.54s-.15-2.22,1.87-2.23H223v-8.07H209.73c-9.45,0-10.65,6.32-10.65,10"/><path class="cls-2" d="M244,181.93H228.16v43.84h10.17V210.55h9.07v15.22h10.36V194.5c0-9.48-6.46-12.57-13.78-12.57m3.42,20.56h-9.07V189.14H243c3.31,0,4.39,1.43,4.44,4.23v9.12Z"/><path class="cls-2" d="M295.88,181.19a23.6,23.6,0,0,0-10,2,10.24,10.24,0,0,0-2.85-1.29c-1.1-.33-8-1.6-19.38.55v43.36H273.8V190.44c4.62-.55,5.83.08,6.29.34,1.68,1,1.7,3,1.7,3.82v31.17h8.92v-32.2a15.34,15.34,0,0,0-.17-2.25,9,9,0,0,1,1.77-.55,7.11,7.11,0,0,1,4.57.17c.79.4,1.75,1.23,1.74,3.44v31.39H308.8V193.69c0-3.31-.2-6.83-2.9-9.3-1.76-1.63-4.15-3.22-10-3.2"/><polygon class="cls-2" points="315.64 191.23 320.21 191.23 320.21 225.77 330.42 225.77 330.42 181.94 318.57 181.94 315.64 191.23"/><polygon class="cls-2" points="338.07 181.94 335.13 191.23 339.7 191.23 339.7 225.77 349.91 225.77 349.91 181.94 338.07 181.94"/><path class="cls-2" d="M90.77,223.63c11.76-7.78,17.34-11.83,19.87-14.38,7.07-7.16,6.81-12.26,6.71-21.94V184l-1.16-.78a38.69,38.69,0,0,0-7-3.59v5.6a31.93,31.93,0,0,1,3.2,1.68c0,.11,0,.26,0,.44.07,6.56.17,10.87-1.7,15a18.63,18.63,0,0,1-3.57,5.05c-3.87,4.51-20.27,16.45-20.27,16.45v-.5s10.34-8.79,12.12-10.6c7.52-7.63,8.13-14.41,8.24-18.88h0v-19a65.69,65.69,0,0,0-23.25-4.28c-15.55.13-23.37,4.28-23.37,4.28v19c.1,4.48.67,11.14,8.19,18.77,1.77,1.8,12.06,10.72,12.06,10.72v.5S64.24,212.14,60.4,207.6a20.46,20.46,0,0,1-3.63-5.66c-1.34-2.78-1.43-8.27-1.37-14.57,0-.19,0-.34,0-.45a34.1,34.1,0,0,1,3.18-1.66v-5.61a39.27,39.27,0,0,0-7,3.59l-1.16.78v3.29c-.09,9.67-.13,15.18,6.71,21.94,2.24,2.2,11.3,8.63,19.73,14.37L80.26,226c-.08,0-5.28,4.3-5.79,4.72-1.73,1.46-2.23,2.32-2.26,3.27v2.36H95.48V234c-.07-1.11-.52-1.81-2.26-3.26-.91-.76-2.11-1.72-4-3.33L78,232.56v-.23ZM71.68,211l2.75-3V180.27l-2.75-3H82c6.41,0,7.46.22,8.81.69a8.24,8.24,0,0,1,3.09,1.86,7.88,7.88,0,0,1,2,2.87,9.22,9.22,0,0,1,.64,3.44v15.67a9.53,9.53,0,0,1-.64,3.46,8,8,0,0,1-2,2.92,10.38,10.38,0,0,1-3.35,2c-2.58,1-8.12.76-9.23.76H71.68"/></svg>