<svg id="Layer_1" data-name="Layer 1" xmlns="http://www.w3.org/2000/svg" viewBox="0 0 400 400"><defs><style>.cls-1{fill:#fff;}.cls-2{fill:#052465;}.cls-3{fill:#262c65;}.cls-4{fill:#ec0677;}</style></defs><rect class="cls-1" x="-1395.34" y="-1866.79" width="2777.89" height="4120.23"/><path class="cls-2" d="M183.53,194.53v3.35a.33.33,0,0,0,.31.31h7.46a2.4,2.4,0,0,1,2.43,2.43v5.48a2.4,2.4,0,0,1-2.43,2.44h-7.46a.32.32,0,0,0-.31.3V212a.32.32,0,0,0,.31.3h10.35a2.73,2.73,0,0,1,2.74,2.75v5.63a2.61,2.61,0,0,1-2.74,2.59H173.48c-2.13,0-3.65-1.68-3.65-4.57v-33c0-1.22,1.67-2.74,3.65-2.74h20.71a2.7,2.7,0,0,1,2.74,2.59v5.63a2.7,2.7,0,0,1-2.74,2.59H183.84C183.68,194.23,183.53,194.38,183.53,194.53Z"/><path class="cls-2" d="M234.54,223.31a2.63,2.63,0,0,1-1.53.45h-6.85c-1.83,0-2.59-1.21-3.35-3.19l-1.52-4h-7.76l-1.53,4c-.76,2-1.52,3-3.35,3h-7a2.29,2.29,0,0,1-1.37-.3,3.33,3.33,0,0,1-1.83-4l9.14-33.5a3.19,3.19,0,0,1,3.19-2.43H224a3.29,3.29,0,0,1,2.44.91,4.34,4.34,0,0,1,1.06,2.28l8.68,32.89A3.38,3.38,0,0,1,234.54,223.31ZM220.38,204l-1.37-3.5-1.07-2.59c-.15-.61-1.07-.61-1.37,0l-1.07,2.59-1.37,3.5c-.3.46.16.91.61.91h4.72C220.22,204.88,220.53,204.43,220.38,204Z"/><path class="cls-2" d="M267.57,186.77v7a3.54,3.54,0,0,1-3.5,3.5h-7c-.15,0-.46.15-.46.31v22.68a3.54,3.54,0,0,1-3.5,3.5h-6.85a3.67,3.67,0,0,1-3.65-3.5V197.58a.33.33,0,0,0-.31-.31h-7a3.54,3.54,0,0,1-3.5-3.5v-7a3.54,3.54,0,0,1,3.5-3.51h28.77A3.36,3.36,0,0,1,267.57,186.77Z"/><path class="cls-2" d="M297.11,186v5.64a2.67,2.67,0,0,1-2.59,2.59H284.17a.32.32,0,0,0-.3.3v4.72a.33.33,0,0,0,.3.31h7.46a2.4,2.4,0,0,1,2.44,2.43v5.63a2.41,2.41,0,0,1-2.44,2.44h-7.46c-.15,0-.3.15-.3.46v9.59a3.78,3.78,0,0,1-3.81,3.81h-6.4a3.75,3.75,0,0,1-3.65-3.81v-33a3.75,3.75,0,0,1,3.65-3.81h20.86A2.7,2.7,0,0,1,297.11,186Z"/><path class="cls-2" d="M308.83,223.76h-6.24a3.7,3.7,0,0,1-3.65-3.65V186.77a3.6,3.6,0,0,1,3.65-3.66h6.24a3.52,3.52,0,0,1,3.66,3.66v33.34A3.6,3.6,0,0,1,308.83,223.76Z"/><path class="cls-2" d="M350.1,186.77v7a3.54,3.54,0,0,1-3.51,3.5h-7c-.15,0-.46.15-.46.31v22.68a3.54,3.54,0,0,1-3.5,3.5h-6.85a3.67,3.67,0,0,1-3.65-3.5V197.58a.33.33,0,0,0-.31-.31h-7a3.54,3.54,0,0,1-3.5-3.5v-7a3.54,3.54,0,0,1,3.5-3.51h28.77A3.37,3.37,0,0,1,350.1,186.77Z"/><polygon class="cls-3" points="79.39 175.04 73.15 181.59 78.78 178.85 89.9 181.89 101.92 179.76 91.72 179.46 79.39 175.04"/><polygon class="cls-3" points="97.2 175.5 102.23 171.08 83.5 174.43 97.2 175.5"/><polygon class="cls-3" points="97.81 168.04 101.16 163.01 90.5 165.6 79.54 173.06 92.18 168.8 97.81 168.04"/><path class="cls-3" d="M63.4,211.13,73,220l11.11-3.66c-.15,0-10.5.92-10.5.92l-13.1-12.79Z"/><polygon class="cls-3" points="68.89 223.31 66.3 221.02 68.58 225.9 72.54 226.5 83.65 220.11 73.3 223.92 68.89 223.31"/><polygon class="cls-3" points="112.58 179.46 102.38 179.76 114.41 181.89 125.52 178.85 131.31 181.59 125.07 175.04 112.58 179.46"/><polygon class="cls-3" points="120.96 174.43 102.23 170.93 107.25 175.35 120.96 174.43"/><polygon class="cls-3" points="112.13 168.8 124.76 173.06 113.8 165.6 103.3 163.01 106.49 168.04 112.13 168.8"/><path class="cls-3" d="M120.35,216.3,131.46,220l9.59-8.83,2.9-6.7-13.1,12.79C130.7,217.22,120.5,216.3,120.35,216.3Z"/><polygon class="cls-3" points="131 223.92 120.65 220.11 131.77 226.5 135.88 225.9 138.01 221.02 135.57 223.31 131 223.92"/><path class="cls-2" d="M154.6,194.68h0v0a20.38,20.38,0,0,0-2.13-1.52,19,19,0,0,0-7.61-2.59,24.5,24.5,0,0,0-3.35,0,54.11,54.11,0,0,0-3-7.31c-.3-.45-.45-1.06-.76-1.52a.15.15,0,0,1,.16-.15,31.14,31.14,0,0,0,4.56-7.61c1.37-3.81,1.83-7.77-.3-12s-4.87-4.72-4.87-4.72h0a12.11,12.11,0,0,0-5.33.15c-3.81.76-6.09,2.29-8.07,3.05s-3.5,1.52-4.11,1.82-3.2-.15-3.2-.15a33,33,0,0,0-8.07-1.37c-4.11-.3-5.78,0-6.24.15-.46-.15-2.13-.45-6.24-.15a45.38,45.38,0,0,0-8.07,1.37s-2.59.46-3.2.15-2.13-.91-4.11-1.82-4.26-2.29-8.07-3.05a12.11,12.11,0,0,0-5.33-.15h0s-2.89.46-4.87,4.72-1.52,8.22-.31,12a25.91,25.91,0,0,0,4.57,7.61.15.15,0,0,0,.15.15c-.3.46-.45.92-.76,1.52a54.94,54.94,0,0,0-3,7.31,12.4,12.4,0,0,0-3.35,0A18.94,18.94,0,0,0,52,193.16a11.66,11.66,0,0,0-2.14,1.52h0a30,30,0,0,0,.16,9.14c.76,5,2.13,11.87,2.13,11.87l1.37-.3a49.08,49.08,0,0,0,2,5.33c3.5,8.22,7.91,12.33,7.91,12.33L66,232.9l.31,3.65,22.38,4.87c.91,2.59,1.67,4.57,1.67,4.57a9.73,9.73,0,0,0,4.11,2.44,39.13,39.13,0,0,0,7.92,1.06h0a39.13,39.13,0,0,0,7.92-1.06,11.16,11.16,0,0,0,4.11-2.44s.76-1.82,1.67-4.57l22.38-4.87.31-3.65,2.59.15s4.41-4.11,7.91-12.33a49.08,49.08,0,0,0,2-5.33l1.37.3s1.53-6.85,2.14-11.87A37.32,37.32,0,0,0,154.6,194.68Zm-43.24,49.18c-.61,1.07-9,2.28-9,2.28h-.61c-1.67-.3-8.07-1.21-8.68-2.28-.45-.61-2.43-5.63-4.11-9.74a17.59,17.59,0,0,0,3.35.61,16.94,16.94,0,0,0,7.77-1.37,4.49,4.49,0,0,0,2.13-2,9.17,9.17,0,0,0,2.13,2,16.91,16.91,0,0,0,7.77,1.37,15.33,15.33,0,0,0,3.34-.61C113.8,238.38,111.67,243.25,111.36,243.86Zm40.35-47.5s-.15,6.24-.76,10.66c-.76,4.87-1.22,5.48-1.22,5.48l-7.46.45,5.18,3.2a69.15,69.15,0,0,1-4.11,8.53,26.27,26.27,0,0,1-4.42,5.33l-4.11.15-.15,4-17.66,4c1.82-4.88,4-10.51,4.11-11.12a4.4,4.4,0,0,0,0-2.13l-8.68-16.29a14.4,14.4,0,0,0,2.28,2L108,202a.15.15,0,0,0,.16.15v.16c-.46,2.28,2.43,8.22,2.43,8.22s3.66,6.7,5.94,11L106.49,225l11.42-1.06a3.21,3.21,0,0,1,.61,2l-12.33.61,11.87,1.68v.3s-.3.76-.91,2.13l-11.27-2.89L115,232c-.15,0-.31.15-.61.15a12.49,12.49,0,0,1-7.16-.31c-1.82-.76-3.5-3.65-3.5-3.65l.15-2.89s7.92-3.51,8.38-6.09-2.13-2.44-2.13-2.44l-7.77,1.67h0l-7.76-1.67a2.08,2.08,0,0,0-2.14,2.44c.46,2.43,8.38,6.09,8.38,6.09l.15,2.89s-1.83,2.89-3.5,3.65a12.49,12.49,0,0,1-7.16.31c-.15,0-.3-.15-.61-.15l9.14-4.27-11.27,2.89c-.45-1.21-.91-2.13-.91-2.13v-.3l11.87-1.68-12.33-.61a2.27,2.27,0,0,1,.15-1.06c0-.15.31-.46.46-.91L98.27,225l-10-3.5c2.29-4.26,5.94-11,5.94-11s2.89-5.94,2.44-8.22v-.16c0-.15.15-.3.15-.45H96.6s-3.35,5.17-4.88,7.3a2.29,2.29,0,0,1,.61-.45l-8.68,16.29a3,3,0,0,0,0,2.13c.16.61,2.29,6.09,4.11,11.12l-17.66-4-.15-4L65.84,230a32.3,32.3,0,0,1-4.41-5.33,69.84,69.84,0,0,1-4.12-8.53l5.18-3.2L55,212.5A48.41,48.41,0,0,1,53.81,207a76.21,76.21,0,0,1-.76-10.66h0a11.39,11.39,0,0,1,6.09-2.89,20.81,20.81,0,0,1,6.4-.16s.15-.76.76-2.89a51.6,51.6,0,0,1,3-7.46,74.93,74.93,0,0,1,6.09-9l-1.82-1.53s-.61.77-2,2.29a55.65,55.65,0,0,0-3.35,4.57c-1.22-1.83-3.81-5.79-4.11-7.92-.46-3-.77-5.63.76-8.53a5.84,5.84,0,0,1,2.89-3.19,7.81,7.81,0,0,1,3.81,0c1.37.45,5.93,2.13,8.37,3.19s4.26,2,5.63,2c1.53-.15,4.27-.61,8.83-1.52a22.14,22.14,0,0,1,7.92-.15h0a22.14,22.14,0,0,1,7.92.15c4.41.91,7.31,1.37,8.83,1.52s3.2-.76,5.63-2c2.44-1.06,7-2.74,8.38-3.19a7.77,7.77,0,0,1,3.8,0c.61.15,1.83.91,2.89,3.19,1.38,3,1.22,5.48.77,8.53-.31,2.28-2.9,6.09-4.11,7.92a44.09,44.09,0,0,0-3.35-4.57c-1.22-1.52-2-2.29-2-2.29L129.33,174a74.93,74.93,0,0,1,6.09,9,50.45,50.45,0,0,1,3,7.46,10.43,10.43,0,0,1,.77,2.89,20.42,20.42,0,0,1,6.39.16,9.86,9.86,0,0,1,6.09,2.89Z"/><path class="cls-4" d="M138,198.64a13.12,13.12,0,0,0-6.09-11.26c-2.59-1.53-6.55-1.83-8.83-1.83,0,0-3.35-.15-6.55,0H87.76c-3.19-.15-6.85,0-6.85,0-2.43,0-6.24.3-8.83,1.83A12.79,12.79,0,0,0,66,198.64a18,18,0,0,0,1.68,8.22c3.65,7.16,11.42,7.46,11.42,7.46A19.36,19.36,0,0,0,98.42,195h0v-.31h7.16V195h0a19.36,19.36,0,0,0,19.33,19.33,13.81,13.81,0,0,0,11.42-7.46A15.77,15.77,0,0,0,138,198.64Zm-40.2-7.15a6.38,6.38,0,0,0-1.52-2.59h11.12a14.36,14.36,0,0,0-1.53,2.59Z"/></svg>