<?xml version="1.0" encoding="UTF-8" standalone="no"?>
<svg
   id="Layer_1"
   data-name="Layer 1"
   viewBox="0 0 350 120"
   version="1.1"
   sodipodi:docname="ex_swiggy.svg"
   inkscape:version="1.1.1 (eb90963e84, 2021-10-02)"
   xmlns:inkscape="http://www.inkscape.org/namespaces/inkscape"
   xmlns:sodipodi="http://sodipodi.sourceforge.net/DTD/sodipodi-0.dtd"
   xmlns="http://www.w3.org/2000/svg"
   xmlns:svg="http://www.w3.org/2000/svg">
  <sodipodi:namedview
     id="namedview9"
     pagecolor="#ffffff"
     bordercolor="#666666"
     borderopacity="1.0"
     inkscape:pageshadow="2"
     inkscape:pageopacity="0.0"
     inkscape:pagecheckerboard="0"
     showgrid="false"
     inkscape:zoom="2.71529"
     inkscape:cx="177.69741"
     inkscape:cy="55.979287"
     inkscape:window-width="1920"
     inkscape:window-height="1010"
     inkscape:window-x="0"
     inkscape:window-y="34"
     inkscape:window-maximized="1"
     inkscape:current-layer="Layer_1" />
  <defs
     id="defs4">
    <style
       id="style2">.cls-1{fill:#fc8019;}</style>
  </defs>
  <g
     id="g54840"
     transform="translate(4.009312)">
    <path
       class="cls-1"
       d="m 134.3826,89.164018 -0.12147,-0.09544 a 153.13544,153.13544 0 0 1 -9.44894,-13.318771 c -1.33622,-2.221241 -2.18654,-3.965261 -2.03036,-4.41645 0.43384,-1.171358 8.13876,-1.813435 10.51618,-0.754875 0.72018,0.321039 0.70283,0.746198 0.70283,0.997823 0,1.067236 -0.0521,3.930553 -0.0521,3.930553 a 1.0759133,1.0759133 0 1 0 2.14314,0 v -7.158294 c 0,-0.624723 -0.67679,-0.772227 -0.80693,-0.798258 h -6.45548 c -5.96091,0 -7.28845,0.242949 -8.30362,-0.416482 -2.19521,-1.422983 -5.7787,-11.123556 -5.86547,-16.581212 a 19.713509,19.713509 0 0 1 39.29687,-2.264624 v 0 c 0.20823,2.386098 -12.91096,2.898024 -15.49663,2.203886 a 0.71149107,0.71149107 0 0 1 -0.50325,-0.694137 c 0,-1.813435 0,-6.941377 0,-6.941377 a 1.0759149,1.0759149 0 1 0 -2.15182,0 v 9.405565 a 0.78090483,0.78090483 0 0 0 0.65075,0.772229 h 8.13877 c 4.33836,0 6.16046,0.503249 7.3752,1.431657 0.80695,0.616048 1.1193,1.804759 0.86769,3.340539 -2.43813,13.726571 -17.86534,30.646176 -18.45536,31.357668 z m 41.84783,-31.87827 c 3.89584,1.665929 6.2993,3.522748 6.2993,7.609483 0,4.086735 -3.14098,6.819903 -8.00862,6.819903 -3.93923,0 -7.10623,-1.796082 -8.67671,-4.911024 l -0.26032,-0.50325 4.63338,-2.69846 0.30368,0.494572 c 1.04122,1.735345 2.21257,2.438159 3.90453,2.438159 1.45769,0 2.43816,-0.642077 2.43816,-1.61387 0,-0.971792 -0.7115,-1.475042 -2.89802,-2.429482 l -1.1193,-0.485896 c -2.97611,-1.266801 -5.72664,-3.036852 -5.72664,-7.314476 0,-3.852463 2.94141,-6.533569 7.14961,-6.533569 a 7.2363848,7.2363848 0 0 1 6.88065,3.895847 l 0.27765,0.50325 -4.48586,2.889347 -0.31236,-0.546633 c -0.75488,-1.344891 -1.45769,-1.613869 -2.3514,-1.613869 -0.8937,0 -1.54445,0.511926 -1.54445,1.327538 0,0.815612 0.44251,1.336214 2.3861,2.16918 z m 32.80668,0.780905 3.27112,-9.15394 h 5.61384 l -8.32098,23.201549 h -1.24944 l -5.04118,-10.863253 c -0.23427,-0.494574 -0.48589,-1.110621 -0.69414,-1.683284 -0.21692,0.572663 -0.45986,1.18871 -0.69414,1.735344 l -5.20603,10.863253 h -1.24077 l -8.45112,-23.20155 h 5.99561 l 3.30584,9.15394 c 0.20824,0.58134 0.42515,1.292832 0.61603,1.952263 a 17.518298,17.518298 0 0 1 0.78092,-2.004322 l 4.33835,-9.292769 h 1.19739 l 4.41645,9.292769 a 19.279673,19.279673 0 0 1 0.77223,2.004322 c 0.19957,-0.659431 0.42516,-1.379599 0.6334,-1.96094 z m 15.4272,13.388179 V 48.444169 h 5.6659 v 23.010663 z m 24.25144,-7.739636 v -5.145294 h 10.52486 v 10.31662 l -0.21691,0.173535 a 14.55086,14.55086 0 0 1 -8.67673,2.672429 c -7.29712,0 -12.39035,-4.850286 -12.39035,-11.791662 0,-6.941377 4.9197,-11.765633 11.68754,-11.765633 3.72231,0 6.46416,1.05856 8.34701,3.219063 l 0.37309,0.425159 -3.86981,3.843788 -0.41649,-0.433837 a 5.4316269,5.4316269 0 0 0 -4.42513,-1.813433 c -3.47069,0 -5.88281,2.681105 -5.88281,6.524893 0,3.999968 2.60301,6.585631 6.59431,6.585631 a 10.87193,10.87193 0 0 0 3.6529,-0.598694 V 63.70652 Z m 28.71994,0 v -5.145294 h 10.52487 v 10.31662 l -0.21692,0.173535 a 14.55086,14.55086 0 0 1 -8.67672,2.672429 c -7.29712,0 -12.38168,-4.850286 -12.38168,-11.791662 0,-6.941377 4.91103,-11.765633 11.67886,-11.765633 3.72231,0 6.45549,1.05856 8.33834,3.219063 l 0.37309,0.425159 -3.91321,3.843788 -0.41647,-0.433837 a 5.4576571,5.4576571 0 0 0 -4.43381,-1.813433 c -3.47069,0 -5.89149,2.681105 -5.89149,6.524893 0,3.999968 2.60302,6.585631 6.59431,6.585631 a 10.87193,10.87193 0 0 0 3.6529,-0.598694 V 63.70652 Z m 31.29694,-15.271027 h 5.92619 l -8.13008,15.314412 v 7.696251 h -5.70061 v -7.366537 l -8.67672,-15.618096 h 6.36871 l 3.99997,7.33183 a 27.305639,27.305639 0 0 1 1.20607,2.698459 25.856626,25.856626 0 0 1 1.18871,-2.707136 z"
       id="path6"
       style="stroke-width:0.867675" />
    <g
       id="g54832">
      <g
         aria-label="ex - "
         id="text1949"
         style="font-size:48px;line-height:1.25">
        <path
           d="m 30.603806,65.100746 q 0.328125,3.84375 2.53125,6.375 2.203125,2.53125 5.742187,2.507813 3.257813,-0.02344 5.414063,-1.898438 0.890625,-0.75 1.289062,-1.523437 0.421875,-0.796875 0.421875,-1.242188 h 3.234375 q 0.02344,2.039063 -2.460937,4.6875 -3.023438,3.210938 -6.867188,3.210938 -3.820312,0 -5.976562,-1.054688 -2.132813,-1.078125 -3.609375,-2.90625 -3,-3.703125 -3,-9.140625 0,-5.4375 2.953125,-9.117187 2.953125,-3.679688 8.390625,-3.679688 5.4375,0 8.390625,3.539063 2.953125,3.515625 2.953125,10.242187 z m 16.078125,-3.234375 q -0.820313,-7.3125 -8.320313,-7.3125 -3.140625,0 -5.15625,2.109375 -2.015625,2.109375 -2.507812,5.203125 z"
           style="font-family:AnjaliOldLipi;-inkscape-font-specification:AnjaliOldLipi;fill:#4d4d4d"
           id="path49073" />
        <path
           d="m 73.189743,53.147621 -7.3125,10.5 8.25,11.742188 -2.671875,1.828125 -7.546875,-10.734375 -7.476562,10.757812 -2.671875,-1.828125 8.179687,-11.765625 -7.382812,-10.523437 2.671875,-1.828125 6.679687,9.539062 6.609375,-9.515625 z"
           style="font-family:AnjaliOldLipi;-inkscape-font-specification:AnjaliOldLipi;fill:#4d4d4d"
           id="path49075" />
        <path
           d="m 90.697556,62.522621 h 12.914064 v 3.234375 H 90.697556 Z"
           style="font-family:AnjaliOldLipi;-inkscape-font-specification:AnjaliOldLipi;fill:#4d4d4d"
           id="path49077" />
      </g>
    </g>
  </g>
</svg>
