<svg id="Layer_1" data-name="Layer 1" xmlns="http://www.w3.org/2000/svg" viewBox="0 0 400 400"><defs><style>.cls-1{fill:#fff;}.cls-2{fill:#414042;}</style></defs><rect class="cls-1" x="-2275.34" y="-986.79" width="2777.89" height="4120.23"/><path class="cls-2" d="M55.26,219.14H58l4.59,12.26h-2.8l-.93-2.73H54.3l-1,2.73H50.61ZM55,226.66h3.18l-1.54-4.5h0Z"/><path class="cls-2" d="M68.44,219.14h2.7v4.7h5v-4.7h2.7V231.4H76.1v-5.29h-5v5.29h-2.7Z"/><path class="cls-2" d="M83.24,221.14H80.8v-2h2.44Zm-2.44,1.38h2.44v8.88H80.8Z"/><path class="cls-2" d="M88.6,222.52h1.79v1.63H88.6v4.4c0,.82.21,1,1,1a3.64,3.64,0,0,0,.76-.07v1.91a9.34,9.34,0,0,1-1.43.08c-1.51,0-2.8-.32-2.8-2.11v-5.24H84.69v-1.63h1.47v-2.66H88.6Z"/><path class="cls-2" d="M91.79,225.25c.14-2.27,2.18-3,4.17-3,1.77,0,3.9.4,3.9,2.52v4.62a4.61,4.61,0,0,0,.31,2H97.7a3.2,3.2,0,0,1-.17-.86,4,4,0,0,1-3,1.1c-1.7,0-3-.85-3-2.66,0-4,6-1.88,5.91-3.87,0-1-.72-1.2-1.58-1.2s-1.53.38-1.62,1.34Zm5.63,1.8a4.88,4.88,0,0,1-2,.52c-.76.14-1.44.41-1.44,1.3s.7,1.14,1.49,1.14a1.8,1.8,0,0,0,2-2Z"/><path class="cls-2" d="M107.62,225.65a1.63,1.63,0,0,0-1.8-1.53c-1.57,0-2.08,1.58-2.08,2.88s.5,2.8,2,2.8a1.86,1.86,0,0,0,1.94-1.8h2.35a4,4,0,0,1-4.27,3.64,4.32,4.32,0,0,1-4.49-4.55c0-2.77,1.65-4.81,4.54-4.81,2.09,0,4,1.1,4.17,3.37Z"/><path class="cls-2" d="M111.6,219.14H114v4.62h0a3.06,3.06,0,0,1,2.59-1.48c2.6,0,3.25,1.46,3.25,3.66v5.46h-2.44v-5c0-1.47-.41-2.19-1.56-2.19-1.33,0-1.89.74-1.89,2.55v4.65H111.6Z"/><path class="cls-2" d="M124.12,221.14h-2.44v-2h2.44Zm-2.44,1.38h2.44v8.88h-2.44Z"/><path class="cls-2" d="M139.24,230a4.13,4.13,0,0,1-3.36,1.68c-3.78,0-6-2.84-6-6.37s2.25-6.48,6-6.48a4.91,4.91,0,0,1,5.17,4.33h-2.58a2.49,2.49,0,0,0-2.59-2.06c-2.42,0-3.33,2.06-3.33,4.21s.91,4.1,3.33,4.1a2.63,2.63,0,0,0,2.92-2.64h-2.72v-2h5.15v6.63h-1.71Z"/><path class="cls-2" d="M143.16,222.52h2.32v1.65h0a3.12,3.12,0,0,1,2.83-1.89,2,2,0,0,1,.54.09v2.27a4,4,0,0,0-.88-.09c-1.8,0-2.4,1.27-2.4,2.85v4h-2.44v-8.88Z"/><path class="cls-2" d="M153.8,222.28a4.68,4.68,0,1,1-4.58,4.69A4.36,4.36,0,0,1,153.8,222.28Zm0,7.52c1.67,0,2.16-1.41,2.16-2.83s-.49-2.85-2.16-2.85-2.15,1.42-2.15,2.85S152.15,229.8,153.8,229.8Z"/><path class="cls-2" d="M167.8,231.4h-2.32v-1.24h0a3.15,3.15,0,0,1-2.72,1.48c-2.59,0-3.24-1.46-3.24-3.66v-5.46h2.44v5c0,1.47.41,2.19,1.56,2.19,1.32,0,1.89-.74,1.89-2.55v-4.65h2.44v8.88Z"/><path class="cls-2" d="M169.3,222.52h2.32v1.13h0a2.93,2.93,0,0,1,2.64-1.37c2.78,0,4,2.25,4,4.77,0,2.37-1.29,4.58-3.9,4.58a3.14,3.14,0,0,1-2.66-1.34h0v4.23h-2.43v-12Zm6.6,4.47c0-1.43-.57-2.87-2.13-2.87s-2.11,1.42-2.11,2.87.55,2.81,2.13,2.81S175.9,228.43,175.9,227Z"/><path class="cls-2" d="M191.45,223.26a2.67,2.67,0,0,0-2.68-2.15c-2.42,0-3.33,2.06-3.33,4.21s.91,4.1,3.33,4.1c1.65,0,2.57-1.12,2.78-2.75h2.61a5.15,5.15,0,0,1-5.39,5c-3.78,0-6-2.84-6-6.37s2.24-6.48,6-6.48a5,5,0,0,1,5.29,4.42Z"/><path class="cls-2" d="M199.71,222.28a4.68,4.68,0,1,1-4.58,4.69A4.36,4.36,0,0,1,199.71,222.28Zm0,7.52c1.66,0,2.16-1.41,2.16-2.83s-.5-2.85-2.16-2.85-2.15,1.42-2.15,2.85S198.06,229.8,199.71,229.8Z"/><path class="cls-2" d="M204.93,222.52h2.3v1.2h0a3.2,3.2,0,0,1,2.72-1.44,2.61,2.61,0,0,1,2.59,1.48,3.25,3.25,0,0,1,2.68-1.48c1.89,0,3.24.87,3.24,3.18v5.94h-2.43v-5c0-1.18-.1-2.16-1.5-2.16s-1.62,1.15-1.62,2.25v4.94H210.5v-5c0-1,.07-2.21-1.48-2.21-.48,0-1.65.31-1.65,2v5.15h-2.43v-8.88Z"/><path class="cls-2" d="M219.9,222.52h2.32v1.13h0a2.93,2.93,0,0,1,2.65-1.37c2.78,0,4,2.25,4,4.77,0,2.37-1.29,4.58-3.9,4.58a3.14,3.14,0,0,1-2.66-1.34h0v4.23H219.9v-12Zm6.59,4.47c0-1.43-.57-2.87-2.13-2.87s-2.11,1.42-2.11,2.87.55,2.81,2.13,2.81S226.49,228.43,226.49,227Z"/><path class="cls-2" d="M229.94,225.25c.14-2.27,2.18-3,4.17-3,1.77,0,3.9.4,3.9,2.52v4.62a4.46,4.46,0,0,0,.31,2h-2.47a3.66,3.66,0,0,1-.18-.86,4,4,0,0,1-3,1.1c-1.7,0-3-.85-3-2.66,0-4,6-1.88,5.91-3.87,0-1-.72-1.2-1.58-1.2s-1.53.38-1.61,1.34Zm5.63,1.8a4.88,4.88,0,0,1-2,.52c-.76.14-1.45.41-1.45,1.3s.71,1.14,1.5,1.14a1.81,1.81,0,0,0,2-2Z"/><path class="cls-2" d="M239.55,222.52h2.32v1.24h0a3.11,3.11,0,0,1,2.71-1.48c2.6,0,3.25,1.46,3.25,3.66v5.46h-2.44v-5c0-1.47-.41-2.19-1.56-2.19-1.32,0-1.89.74-1.89,2.55v4.65h-2.44v-8.88Z"/><path class="cls-2" d="M253.77,232.51a2.79,2.79,0,0,1-3.06,2c-.49,0-1,0-1.49-.08v-2a9.57,9.57,0,0,0,1.43.08,1,1,0,0,0,.94-1.11,1.45,1.45,0,0,0-.1-.55l-3.13-8.33H251l2,6.08h0l1.94-6.08h2.52Z"/><path class="cls-2" d="M70.24,188.85H84a15.07,15.07,0,1,1-.56-9.81h4.09a18.92,18.92,0,1,0-18,24.65,18.71,18.71,0,0,0,14.74-7.31v6.5h3.5V185.07H70.24Z"/><rect class="cls-2" x="94.16" y="167.03" width="3.77" height="35.84"/><rect class="cls-2" x="205.63" y="167.03" width="3.78" height="35.8"/><path class="cls-2" d="M117.6,200.28a10.76,10.76,0,1,1,10.51-10.77,10.75,10.75,0,0,1-10.51,10.77m0-25.09a14.32,14.32,0,1,0,14.33,14.32,14.34,14.34,0,0,0-14.33-14.32"/><path class="cls-2" d="M150.62,200.28a10.76,10.76,0,1,1,10.5-10.77,10.75,10.75,0,0,1-10.5,10.77m.16-25.36a14.29,14.29,0,0,0-10.67,4.82V167h-3.77v35.85h3.77v-3.61a14.28,14.28,0,0,0,10.67,4.81,14.58,14.58,0,0,0,0-29.16"/><path class="cls-2" d="M184.69,200.26a10.76,10.76,0,1,1,10.5-10.77,10.75,10.75,0,0,1-10.5,10.77m10.53-20.47a14.58,14.58,0,1,0,0,19.43v3.66H199V176.63h-3.82Z"/><rect class="cls-2" x="308.71" y="163.38" width="6.69" height="6.34"/><polygon class="cls-2" points="222.86 167.03 216.74 167.03 216.74 197.08 216.74 202.84 236.82 202.84 236.82 197.08 222.86 197.08 222.86 167.03"/><rect class="cls-2" x="308.71" y="174.66" width="6.69" height="28.13"/><path class="cls-2" d="M253.8,198c-4.47,0-8.11-3.9-8.11-8.7s3.64-8.69,8.11-8.69,8.11,3.89,8.11,8.69-3.63,8.7-8.11,8.7m0-23.39a14.69,14.69,0,1,0,14.69,14.69,14.69,14.69,0,0,0-14.69-14.69"/><path class="cls-2" d="M343.3,193.22A8.1,8.1,0,0,1,336,198c-4.48,0-8.11-3.91-8.11-8.71,0-5.24,3.63-8.7,8.11-8.7A8.06,8.06,0,0,1,343.1,185h7a14.73,14.73,0,1,0,.11,8.21Z"/><path class="cls-2" d="M286.47,212.56a9.66,9.66,0,0,1-7.6-3.92l-5.94,2.89a15.57,15.57,0,0,0,13.54,7.32,15.08,15.08,0,0,0,14.89-13.71h-6.73a8.38,8.38,0,0,1-8.16,7.42"/><path class="cls-2" d="M286.78,198.09c-4.45,0-8.07-3.89-8.07-8.66s3.62-8.66,8.07-8.66a8.39,8.39,0,0,1,8.1,8.66c0,4.77-3.63,8.66-8.1,8.66m8.6-20.5a14.63,14.63,0,1,0,6,11.91V174.69h-6Z"/><path class="cls-2" d="M355.85,169.72a4,4,0,1,1,4,4A3.94,3.94,0,0,1,355.85,169.72Zm7.32,0a3.35,3.35,0,1,0-3.35,3.5A3.33,3.33,0,0,0,363.17,169.72Zm-4.92-2.19h2a1.25,1.25,0,0,1,1.38,1.22,1,1,0,0,1-.87,1v0c.5.12.66.37.72.89s.07,1,.21,1.09v.07h-.83c-.13,0-.14-.51-.18-1a.72.72,0,0,0-.82-.73h-.77v1.74h-.84v-4.33Zm.84,1.93h1c.48,0,.73-.24.73-.62s-.24-.6-.72-.6h-1v1.22Z"/></svg>