<svg id="Layer_1" data-name="Layer 1" xmlns="http://www.w3.org/2000/svg" viewBox="0 0 400 400"><defs><style>.cls-1{fill:#fff;}.cls-2{fill:#e71c24;}.cls-3{fill:#ffc766;}.cls-4{fill:#f18e48;}.cls-5{fill:#3777b6;}.cls-6{fill:#284180;}.cls-7{fill:#8cc0e5;}</style></defs><rect class="cls-1" x="-2275.34" y="-2746.79" width="2777.89" height="4120.23"/><path class="cls-2" d="M142.48,209.22h-5.81V195.17H120.86v14.05H115V176.71h5.83v13.45h15.81V176.71h5.81Z"/><path class="cls-2" d="M158.72,209.73q-5.55,0-8.7-3.41t-3.16-9.41c0-4,1-7.12,3.18-9.39a11.21,11.21,0,0,1,8.68-3.44,11.32,11.32,0,0,1,8.7,3.41c2.14,2.28,3.16,5.43,3.16,9.42s-1.05,7.14-3.16,9.41A11.32,11.32,0,0,1,158.72,209.73Zm-4.55-6.82a5.86,5.86,0,0,0,9,0,12.07,12.07,0,0,0,0-12,5.86,5.86,0,0,0-9,0,12.13,12.13,0,0,0,0,12Z"/><path class="cls-2" d="M174.37,209.22V184.56h5.37v4h.37a6.56,6.56,0,0,1,2.59-3.3,7.58,7.58,0,0,1,4.27-1.19,7.39,7.39,0,0,1,4.26,1.19,6.79,6.79,0,0,1,2.56,3.3h.37a7.51,7.51,0,0,1,2.93-3.27,8.53,8.53,0,0,1,4.56-1.22,7.69,7.69,0,0,1,5.8,2.19,8.38,8.38,0,0,1,2.1,6v16.95H204V193.69c0-3.19-1.51-4.75-4.52-4.75a4.58,4.58,0,0,0-3.5,1.39,4.93,4.93,0,0,0-1.34,3.53v15.36h-5.38V193.29a4.21,4.21,0,0,0-1.19-3.18,4.9,4.9,0,0,0-6.72.34,5.4,5.4,0,0,0-1.36,3.78v15Z"/><path class="cls-2" d="M230.43,202.45h5.29a8.45,8.45,0,0,1-3.69,5.32,12.69,12.69,0,0,1-7.26,2,11,11,0,0,1-8.53-3.38c-2.08-2.28-3.1-5.38-3.1-9.36s1-7.11,3.1-9.44a12.06,12.06,0,0,1,16.75-.17c2,2.19,3,5.26,3,9.13v1.79H218.74v.28a7.45,7.45,0,0,0,1.77,4.9,5.73,5.73,0,0,0,4.4,1.79C227.76,205.3,229.61,204.33,230.43,202.45Zm-5.71-13.94a5.49,5.49,0,0,0-4.13,1.65,6.59,6.59,0,0,0-1.79,4.36h11.6a6.38,6.38,0,0,0-1.62-4.38A5.32,5.32,0,0,0,224.72,188.51Z"/><path class="cls-2" d="M261.1,204.13v5.09H240.36V176.71h5.83v27.42Z"/><path class="cls-2" d="M271.71,209.65a8.54,8.54,0,0,1-5.89-2,6.88,6.88,0,0,1-2.28-5.38A6.22,6.22,0,0,1,266,197a12.34,12.34,0,0,1,6.94-2.16l6.37-.37v-2.08a3.34,3.34,0,0,0-1.19-2.79,5.3,5.3,0,0,0-3.44-1,7.18,7.18,0,0,0-3.22.65,3.21,3.21,0,0,0-1.65,1.91h-5.26a6.93,6.93,0,0,1,3.16-5.21,12.58,12.58,0,0,1,7.22-1.93c3.16,0,5.61.74,7.31,2.19a7.54,7.54,0,0,1,2.59,6.14v16.84h-5.37v-3.38h-.37a7.23,7.23,0,0,1-3,2.78A9.57,9.57,0,0,1,271.71,209.65Zm1.65-4.41a6.19,6.19,0,0,0,4.21-1.45,4.58,4.58,0,0,0,1.68-3.58v-2l-5.58.37q-4.6.3-4.61,3.33a2.86,2.86,0,0,0,1.2,2.42A5.1,5.1,0,0,0,273.36,205.24Z"/><path class="cls-2" d="M289.66,209.22V184.56h5.4v3.95h.37a7,7,0,0,1,2.76-3.27,8.53,8.53,0,0,1,4.58-1.16,8.18,8.18,0,0,1,6.32,2.39c1.48,1.59,2.19,3.86,2.19,6.79v16h-5.61V194.6c0-3.78-1.65-5.66-5-5.66a5.23,5.23,0,0,0-4,1.59,6.27,6.27,0,0,0-1.48,4.33v14.36Z"/><path class="cls-2" d="M332.13,202.45h5.29a8.46,8.46,0,0,1-3.7,5.32,12.63,12.63,0,0,1-7.25,2,11.05,11.05,0,0,1-8.54-3.38c-2.07-2.25-3.1-5.38-3.1-9.36s1-7.11,3.1-9.44a12.07,12.07,0,0,1,16.76-.17c2,2.19,3,5.26,3,9.13v1.79H320.44v.28a7.4,7.4,0,0,0,1.76,4.9,5.76,5.76,0,0,0,4.41,1.79C329.45,205.3,331.27,204.33,332.13,202.45Zm-5.72-13.94a5.47,5.47,0,0,0-4.12,1.65,6.6,6.6,0,0,0-1.8,4.36H332.1a6.48,6.48,0,0,0-1.62-4.38A5.34,5.34,0,0,0,326.41,188.51Z"/><path class="cls-2" d="M343.62,184.5a.45.45,0,0,1,.11-.31.38.38,0,0,1,.32-.11.34.34,0,0,1,.28.11.37.37,0,0,1,.11.31.36.36,0,0,1-.11.29.37.37,0,0,1-.28.11.46.46,0,0,1-.32-.11A.39.39,0,0,1,343.62,184.5Z"/><path class="cls-2" d="M348.26,191.53v-.48a2.11,2.11,0,0,0,1.19-.74,2.2,2.2,0,0,0,.46-1.4,2.15,2.15,0,0,0-.8-1.76,3.32,3.32,0,0,0-2.13-.66,3.4,3.4,0,0,0-2.17.66,2.1,2.1,0,0,0-.79,1.76,2.3,2.3,0,0,0,.42,1.4,2,2,0,0,0,1.14.74v.48a2.31,2.31,0,0,1-1.45-.85,2.82,2.82,0,0,1-.57-1.77,2.66,2.66,0,0,1,.91-2.1A3.67,3.67,0,0,1,347,186a3.63,3.63,0,0,1,2.47.8,2.63,2.63,0,0,1,.91,2.1,2.78,2.78,0,0,1-.59,1.77A2.57,2.57,0,0,1,348.26,191.53Z"/><path class="cls-2" d="M344.47,198.07a2.77,2.77,0,0,1-.91-2.13,2.81,2.81,0,0,1,.91-2.14,4.27,4.27,0,0,1,4.95,0,2.77,2.77,0,0,1,.91,2.14,2.74,2.74,0,0,1-.91,2.13,3.53,3.53,0,0,1-2.47.8A3.63,3.63,0,0,1,344.47,198.07Zm.34-3.9a2.18,2.18,0,0,0-.79,1.77,2.1,2.1,0,0,0,.79,1.76,3.2,3.2,0,0,0,2.14.66,3.35,3.35,0,0,0,2.16-.66,2.35,2.35,0,0,0,0-3.53,3.24,3.24,0,0,0-2.16-.65A3.31,3.31,0,0,0,344.81,194.17Z"/><path class="cls-2" d="M343.68,200.6h6.57v.46h-1.42a2.24,2.24,0,0,1,1.1.71,1.91,1.91,0,0,1,.43,1.28,1.82,1.82,0,0,1-.45,1.28,1.91,1.91,0,0,1-1.11.68v0a2,2,0,0,1,1.11.74,2,2,0,0,1,.45,1.34,2.06,2.06,0,0,1-.6,1.53,2.27,2.27,0,0,1-1.62.57h-4.43v-.48H348a1.92,1.92,0,0,0,1.39-.46,1.63,1.63,0,0,0,.51-1.25,1.66,1.66,0,0,0-.59-1.33,2.24,2.24,0,0,0-1.54-.52h-4.09v-.48H348a1.94,1.94,0,0,0,1.36-.48,1.75,1.75,0,0,0-.11-2.59,2.59,2.59,0,0,0-1.68-.51h-3.92v-.52Z"/><path class="cls-3" d="M52.05,188l4.63-4.18h0c-.14.14-.28.31-.42.48a4.64,4.64,0,0,0-.91,2,4.5,4.5,0,0,0,.22,2.36l7.6,23.39A4.33,4.33,0,0,1,61,210.3c-2.48-4-7.14-11.52-9.9-16a5,5,0,0,1,.91-6.29"/><path class="cls-4" d="M55.38,186.32a4.64,4.64,0,0,1,1.36-2.53l7.14-6.43a4,4,0,0,1,4.38.74l6.66,6L65.05,193a1.81,1.81,0,0,0-.57,1.36v18a5,5,0,0,1-1.28-.28l-7.6-23.42a4.43,4.43,0,0,1-.22-2.36"/><path class="cls-5" d="M72.61,169.54a3.41,3.41,0,0,1,2.34-.88,3.5,3.5,0,0,1,2.33.88l8.7,7.82a4,4,0,0,0-4.38.74l-6.68,6-6.66-6a4.1,4.1,0,0,0-4.38-.74Z"/><path class="cls-6" d="M94.46,186.32a4.48,4.48,0,0,0-.91-2,2.49,2.49,0,0,0-.45-.51L86,177.39a4,4,0,0,0-4.39.74l-6.65,6,9.9,8.94a1.81,1.81,0,0,1,.57,1.36v18a5.14,5.14,0,0,0,1.28-.28l7.56-23.42a4.43,4.43,0,0,0,.23-2.36"/><path class="cls-7" d="M97.79,188l-4.64-4.18h0c.14.14.29.31.43.48a4.76,4.76,0,0,1,.91,2,4.4,4.4,0,0,1-.23,2.36l-7.59,23.39a4.38,4.38,0,0,0,2.13-1.77l9.9-16a5,5,0,0,0-.91-6.29"/><path class="cls-2" d="M65.05,193l9.9-8.91L84.82,193a1.81,1.81,0,0,1,.57,1.36v18a4.26,4.26,0,0,1-3.25-1.11l-2.93-2.64A6.38,6.38,0,0,0,75,207a6.28,6.28,0,0,0-4.27,1.65l-3,2.61a4.24,4.24,0,0,1-3.24,1.11v-18a1.74,1.74,0,0,1,.57-1.33"/></svg>