<svg id="Layer_1" data-name="Layer 1" xmlns="http://www.w3.org/2000/svg" viewBox="0 0 400 400"><defs><style>.cls-1{fill:#fff;}.cls-2{fill:#231f20;}.cls-3{fill:#ef8844;}</style></defs><rect class="cls-1" x="-1835.34" y="-986.79" width="2777.89" height="4120.23"/><polygon class="cls-2" points="149.97 216.32 157.19 216.32 154.36 184.64 146.69 184.64 139.67 202.92 132.66 184.64 125.01 184.64 122.18 216.32 129.37 216.32 130.87 197.53 131.04 197.53 137.52 216.11 141.82 216.11 148.3 197.53 148.48 197.53 149.97 216.32"/><path class="cls-2" d="M166.48,200.43c0-4.69,2.59-9.42,8.14-9.42s8.12,4.73,8.12,9.42-2.38,9.46-8.12,9.46c-5.9,0-8.14-4.73-8.14-9.46m-7.79,0c0,9.28,6.59,16.46,15.93,16.46,9.08,0,15.89-7.18,15.89-16.46a15.92,15.92,0,1,0-31.82,0"/><polygon class="cls-2" points="200.89 196.63 200.98 196.63 213.55 216.32 220.74 216.32 220.74 184.64 213.55 184.64 213.55 204.29 213.46 204.29 200.89 184.64 193.7 184.64 193.7 216.32 200.89 216.32 200.89 196.63"/><polygon class="cls-2" points="243.43 184.64 225.34 184.64 225.34 216.32 243.43 216.32 243.43 209.98 232.54 209.98 232.54 203.61 242.95 203.61 242.95 197.26 232.54 197.26 232.54 190.95 243.43 190.95 243.43 184.64"/><polygon class="cls-2" points="244.12 184.64 255.76 202.11 255.76 216.32 262.95 216.32 262.95 202.11 274.63 184.64 265.94 184.64 259.34 194.78 252.77 184.64 244.12 184.64"/><path class="cls-3" d="M336,198.79v-8.41h2c2.83,0,5.52,1,5.52,4.22s-2.69,4.19-5.52,4.19Zm-7.19-14.15v31.68H336V204.56h4.32c6.18,0,10.81-3.64,10.81-10.17s-4.63-9.75-10.81-9.75Zm-13.77,19h-7.13l3.52-9.22h.09Zm-.23-19h-6.66l-12.75,31.68h7.73l2.33-6.34h12l2.33,6.34h7.73ZM274.53,191h8.78v25.37h7.2V191H298v-6.31H278.77Z"/><path class="cls-2" d="M52.87,176.17H96.42A2.59,2.59,0,0,1,99,178.74v20.8c-1.43-.24-2.74-.51-4-.81v-18a.63.63,0,0,0-.63-.6H54.87a.6.6,0,0,0-.6.6v39.64a.64.64,0,0,0,.6.64H73.25A55,55,0,0,0,77.34,225H52.87a2.57,2.57,0,0,1-2.57-2.57V178.74a2.59,2.59,0,0,1,2.57-2.57"/><path class="cls-3" d="M88,219.94l-.18-.09c-19.88-9.66-24-23.51-24.84-28.57-.11,5,3.29,22.47,20.39,35.52,1.85.33,21.32-2.55,21.32-2.55s-3.65-.72-9.11-5.14c-3.67.33-6.71.8-7.34.83Z"/><path class="cls-3" d="M102.68,206.12a19.46,19.46,0,0,1-2.29-.06l-1-.09a18.63,18.63,0,0,1-3.61-.87.41.41,0,0,0-.18,0,5.49,5.49,0,0,0-.51-.21l-.24-.13a2.22,2.22,0,0,1-.45-.2.94.94,0,0,1-.3-.15c-.14-.06-.26-.15-.41-.21l-.33-.18a2.5,2.5,0,0,0-.36-.24c-.12-.09-.24-.15-.36-.24l-.33-.24L92,203a3,3,0,0,0-.32-.24,1.57,1.57,0,0,0-.33-.3,1.65,1.65,0,0,1-.3-.29c-.12-.1-.24-.22-.36-.34s-.18-.21-.27-.29-.24-.27-.36-.39a1.66,1.66,0,0,1-.24-.3,4,4,0,0,1-.38-.48l-.18-.27a5.54,5.54,0,0,1-.57-.81s-9.46,3.59-17.11,2.43c.27.18.51.35.78.56,5,3.53,13,6,25.5,4.52,1.87-.18,4-.39,6.18-.72-.42,0-.87.06-1.32.06"/><path class="cls-3" d="M94.68,208.12A52.73,52.73,0,0,1,86.3,208a29.41,29.41,0,0,1-14.48-4.9l-.81-.57a20.7,20.7,0,0,1-3.37-3.29,23.36,23.36,0,0,1-3.91-8c.3,1,.69,2.42,1.23,3.89,0,0,0,0,0,0,.3.87.69,1.83,1.14,2.81.06.12.09.21.15.33a.1.1,0,0,0,0,.06c.21.42.39.81.6,1.2,3.13,6,9.25,13.49,21.34,19.36,1.88-.06,24.21-2.84,24.21-2.84a57.25,57.25,0,0,1-17.71-7.94"/><path class="cls-3" d="M111.43,202a75.18,75.18,0,0,1-8.87-.24c-8.71-.78-14.08-3.2-17.37-5.8C80.44,192.27,80,188.2,80,188.2l-16.12-.57,0,.09h0a15.15,15.15,0,0,0,.42,2.39c.12.45.27.9.45,1.44a20.25,20.25,0,0,0,2.62,5.24,22.54,22.54,0,0,0,2.06,2.51h0a1.75,1.75,0,0,0,.3.33,1.39,1.39,0,0,1,.21.21,5.07,5.07,0,0,0,1.49.93c.09,0,.18.09.27.11a11.12,11.12,0,0,0,1.13.12,35.7,35.7,0,0,0,11.26-1.13,43.67,43.67,0,0,0,4.51-1.38l.33-.12.2.3a7.19,7.19,0,0,0,.54.78,1,1,0,0,0,.09.15l.09.12c.12.15.24.33.36.48l.18.18.09.12c.12.11.21.24.33.36a1.9,1.9,0,0,1,.18.2l.09.06a1.67,1.67,0,0,0,.32.33l.27.27a3.18,3.18,0,0,0,.36.3,2.1,2.1,0,0,0,.3.24,3.19,3.19,0,0,1,.33.27c.12.09.24.15.36.24l.3.21a4.2,4.2,0,0,1,.38.24c.09.06.21.11.3.18a1.62,1.62,0,0,1,.39.21c.09,0,.18.09.27.11a4.07,4.07,0,0,0,.45.21l.27.12a2,2,0,0,1,.47.21l.18.06a15.83,15.83,0,0,0,3.53.83h.06a3.24,3.24,0,0,0,.65.07l.24,0a21.3,21.3,0,0,0,2.27.06,4.86,4.86,0,0,0,.65,0c.21,0,.42,0,.63,0l.81-.09c.3,0,.59-.09.95-.11.51-.1,1.08-.15,1.65-.27h0c.72-.15,1.47-.33,2.18-.54a2.79,2.79,0,0,0,.39-.12,29.29,29.29,0,0,0,5-2.27c-1.29.09-2.51.15-3.71.18"/></svg>