<svg id="Layer_1" data-name="Layer 1" xmlns="http://www.w3.org/2000/svg" viewBox="0 0 400 400"><defs><style>.cls-1{fill:#fff;}.cls-2{fill:#00baf2;}.cls-3{fill:#002970;}</style></defs><rect class="cls-1" x="-2275.34" y="-1426.79" width="2777.89" height="4120.23"/><path class="cls-2" d="M349.2,184.12a19.7,19.7,0,0,0-7.3-9.56,20.15,20.15,0,0,0-11.55-3.63h-.18a20.06,20.06,0,0,0-7.83,1.58,19.85,19.85,0,0,0-6.56,4.48,19.89,19.89,0,0,0-6.57-4.48,20.2,20.2,0,0,0-7.82-1.58h-.18a20.09,20.09,0,0,0-13,4.77v-1.51a2.87,2.87,0,0,0-.92-1.91,3,3,0,0,0-2-.79H271.93a3,3,0,0,0-1.13.23,2.91,2.91,0,0,0-1,.63,2.77,2.77,0,0,0-.63,1,2.83,2.83,0,0,0-.23,1.11V246a2.85,2.85,0,0,0,.87,2.06,2.94,2.94,0,0,0,2.08.86h13.34a3,3,0,0,0,1.93-.72,2.87,2.87,0,0,0,1-1.8V194.49a4.76,4.76,0,0,1,1.46-3.05,5,5,0,0,1,3.14-1.36h2.47a5.24,5.24,0,0,1,2.81,1.08,4.86,4.86,0,0,1,1.36,1.72,4.79,4.79,0,0,1,.45,2.14l.05,51.11a2.89,2.89,0,0,0,.87,2.07,3,3,0,0,0,2.08.85h13.34a2.91,2.91,0,0,0,2-.8,2.82,2.82,0,0,0,.92-2V195a4.83,4.83,0,0,1,2.18-4.12,5.2,5.2,0,0,1,2.45-.81h2.47a4.85,4.85,0,0,1,3.32,1.53,4.79,4.79,0,0,1,1.3,3.4l.06,51a2.92,2.92,0,0,0,.86,2.06,3,3,0,0,0,2.09.85h13.33a2.92,2.92,0,0,0,1.13-.22,3,3,0,0,0,1-.63,2.8,2.8,0,0,0,.64-.95,2.83,2.83,0,0,0,.23-1.11v-54.9a18.4,18.4,0,0,0-1-7"/><path class="cls-2" d="M258.8,171.68h-7.64V159.47a2.78,2.78,0,0,0-.2-1,2.82,2.82,0,0,0-.58-.87,2.93,2.93,0,0,0-.88-.58,2.82,2.82,0,0,0-1-.2,2.22,2.22,0,0,0-.51.06c-8.47,2.27-6.77,13.86-22.23,14.85h-1.5a3,3,0,0,0-2.3,1.1,2.84,2.84,0,0,0-.64,1.81v13.16a2.92,2.92,0,0,0,.86,2.06,3,3,0,0,0,2.09.86h8.06v55.87a2.82,2.82,0,0,0,.22,1.11,2.69,2.69,0,0,0,.63.93,3,3,0,0,0,.94.63,3.1,3.1,0,0,0,1.12.22h13.21a3,3,0,0,0,2.06-.85,2.84,2.84,0,0,0,.85-2V190.69h7.49a3.06,3.06,0,0,0,1.12-.22,2.84,2.84,0,0,0,1-.64,3,3,0,0,0,.64-.94,2.83,2.83,0,0,0,.22-1.12V174.62a2.88,2.88,0,0,0-.86-2.06,2.93,2.93,0,0,0-2.08-.85"/><path class="cls-3" d="M210.76,171.69H197.43a2.94,2.94,0,0,0-3,2.9v27.26a3,3,0,0,1-.93,2.15,3.13,3.13,0,0,1-2.19.89h-5.6a3,3,0,0,1-1.19-.24,3,3,0,0,1-1.93-2.85l-.06-27.22a2.89,2.89,0,0,0-.87-2.06,2.94,2.94,0,0,0-2.09-.85H166.28a3,3,0,0,0-2.09.85,3,3,0,0,0-.64.94,2.87,2.87,0,0,0-.22,1.12v29.86A18.45,18.45,0,0,0,164.6,212a18.75,18.75,0,0,0,4.25,6.42A19,19,0,0,0,183,223.89s8.63,0,8.9.06a3.07,3.07,0,0,1,2,1,3,3,0,0,1,0,4.09,3.13,3.13,0,0,1-2,1l-.22,0-19.53.07a3,3,0,0,0-2.09.86,2.89,2.89,0,0,0-.87,2.06v13.16a2.93,2.93,0,0,0,.87,2.06,3,3,0,0,0,2.09.85H194a19.11,19.11,0,0,0,14.16-5.46,18.66,18.66,0,0,0,4.25-6.42,18.4,18.4,0,0,0,1.28-7.56V174.59a2.82,2.82,0,0,0-.22-1.11,3,3,0,0,0-.64-.94,2.81,2.81,0,0,0-1-.63,2.92,2.92,0,0,0-1.13-.22"/><path class="cls-3" d="M82.69,171.68H53.5a2.89,2.89,0,0,0-2,.84,2.8,2.8,0,0,0-.85,2v71.59a2.76,2.76,0,0,0,.75,2,2.84,2.84,0,0,0,2,.92h13.6A3,3,0,0,0,69,248.2a2.92,2.92,0,0,0,.86-2.06l0-20H82.69A17.64,17.64,0,0,0,89.77,225a17.39,17.39,0,0,0,6-3.87,17,17,0,0,0,5-12.92v-18.6a16.86,16.86,0,0,0-1.14-7,17.07,17.07,0,0,0-3.91-5.94,17.29,17.29,0,0,0-6-3.87,17.62,17.62,0,0,0-7.08-1.14ZM81.52,195.8v8.13a3,3,0,0,1-.92,2.18,3.13,3.13,0,0,1-2.21.91H69.91V190.77h8.48a3.13,3.13,0,0,1,2.21.91,3.07,3.07,0,0,1,.92,2.18Z"/><path class="cls-3" d="M134.79,171.76H116.26a2.87,2.87,0,0,0-3,2.72v12.36a3,3,0,0,0,1,2.09,3.07,3.07,0,0,0,2.18.8h17.64a3.11,3.11,0,0,1,1.83.93,3,3,0,0,1,.83,1.86v1.7A2.9,2.9,0,0,1,136,196a3,3,0,0,1-1.79.9h-8.74a18.74,18.74,0,0,0-14,4.86,18.45,18.45,0,0,0-4.37,6.12,18.13,18.13,0,0,0-1.52,7.33V230.6a17.15,17.15,0,0,0,5.17,13.25,17.39,17.39,0,0,0,6.2,3.9,17.69,17.69,0,0,0,7.28,1.05h24.22a7.69,7.69,0,0,0,5.46-2,7.49,7.49,0,0,0,2.41-5.23v-50C156.26,179.42,149.92,171.76,134.79,171.76Zm2.13,55v2a2.63,2.63,0,0,1-.06.49,3.45,3.45,0,0,1-.12.43,3.14,3.14,0,0,1-3,2h-5.56a3,3,0,0,1-2.18-.81,3,3,0,0,1-1-2.09V217.54a3,3,0,0,1,3.15-2.88h5.56a3,3,0,0,1,3.15,2.9Z"/></svg>