<svg id="Layer_1" data-name="Layer 1" xmlns="http://www.w3.org/2000/svg" viewBox="0 0 350 120"><defs><style>.cls-1{fill:#494949;}.cls-2{fill:#40c9ff;}.cls-3{fill:#9661ba;}.cls-4{fill:#ffa233;}.cls-5{fill:#ff5a7e;}.cls-6{fill:#ffd91d;}</style></defs><g id="Layer_2" data-name="Layer 2"><g id="Layer_1-2" data-name="Layer 1-2"><path class="cls-1" d="M114.26,60c0-9.79-14.14-26-26.18-32.32A19.86,19.86,0,0,0,79.25,25c-3.13,0-6.93,1.45-10.84,3.82a60.35,60.35,0,0,0-11.29,9A61.08,61.08,0,0,0,48,49.24c-2.32,3.85-3.76,7.61-3.76,10.72,0,12.38,22.63,35,35,35,3.13,0,6.9-1.45,10.82-3.8a62.12,62.12,0,0,0,11.33-9,61.54,61.54,0,0,0,9.09-11.39C112.83,66.84,114.26,63.08,114.26,60Z"/><path class="cls-2" d="M90.74,48.49A133.46,133.46,0,0,0,79.29,37.76,73.68,73.68,0,0,0,69,30.57a58,58,0,0,0-10.65,8.52L79.24,60Z"/><path class="cls-3" d="M87.58,29.49A18.72,18.72,0,0,0,79.25,27c-3,0-6.53,1.37-10.22,3.61A71.4,71.4,0,0,1,79.3,37.76Z"/><path class="cls-4" d="M90.13,70.85,79.25,60,58.37,39.09a57.69,57.69,0,0,0-8.6,10.78C56.75,62,70,74,79.34,81.64Z"/><path class="cls-5" d="M89.45,89.39c-.85-.59-4.84-3.46-10.11-7.76C70,74,56.75,62,49.77,49.87c-2.19,3.64-3.53,7.19-3.53,10.1,0,11.67,21.34,33,33,33C82.2,93,85.76,91.62,89.45,89.39Z"/><path class="cls-6" d="M112.26,60c0-9.22-13.34-24.48-24.68-30.48L79.3,37.76A133.33,133.33,0,0,1,90.74,48.49L79.25,60,90.13,70.85,79.34,81.64c5.28,4.3,9.26,7.16,10.11,7.76a58.23,58.23,0,0,0,10.68-8.54,57.59,57.59,0,0,0,8.58-10.74C110.92,66.45,112.26,62.91,112.26,60Z"/><path class="cls-1" d="M131.54,70.75a1.63,1.63,0,0,1-.72-.58,1.51,1.51,0,0,1,.13-1.92,1.38,1.38,0,0,1,1.05-.44,1.8,1.8,0,0,1,.68.14,17,17,0,0,0,7,1.44c4.14,0,6.22-1.36,6.22-4.09a2.29,2.29,0,0,0-.8-1.78,5.8,5.8,0,0,0-2-1.12c-.78-.27-1.89-.6-3.34-1A44.91,44.91,0,0,1,135.11,60a8.12,8.12,0,0,1-3.05-2.09,5.22,5.22,0,0,1-1.28-3.68,6.62,6.62,0,0,1,1.07-3.69A7.29,7.29,0,0,1,135,47.92a11.51,11.51,0,0,1,5-1,20.25,20.25,0,0,1,7.07,1.16,1.39,1.39,0,0,1,1,1.43,1.63,1.63,0,0,1-.39,1,1.33,1.33,0,0,1-1,.46,2.19,2.19,0,0,1-.56-.14,17.45,17.45,0,0,0-5.73-1A8.69,8.69,0,0,0,135.78,51,3.31,3.31,0,0,0,134,54a2.72,2.72,0,0,0,.83,2.08A5.56,5.56,0,0,0,137,57.3a31.65,31.65,0,0,0,3.43.94,35.85,35.85,0,0,1,4.54,1.35,7.34,7.34,0,0,1,2.94,2.1,5.66,5.66,0,0,1,1.23,3.84A5.93,5.93,0,0,1,148,69.1a7.48,7.48,0,0,1-3.2,2.47,12,12,0,0,1-4.77.89A21.31,21.31,0,0,1,131.54,70.75Z"/><path class="cls-1" d="M153.62,71.82a1.52,1.52,0,0,1-.46-1.14V47.62a1.61,1.61,0,0,1,.46-1.16,1.5,1.5,0,0,1,1.13-.48,1.63,1.63,0,0,1,1.64,1.63v9.27a11.72,11.72,0,0,1,2.91-2.38,7.3,7.3,0,0,1,3.69-.89,6.16,6.16,0,0,1,3.39.92,6.05,6.05,0,0,1,2.2,2.53,8.08,8.08,0,0,1,.78,3.52V70.67a1.54,1.54,0,0,1-.48,1.14,1.64,1.64,0,0,1-1.15.46,1.59,1.59,0,0,1-1.6-1.57V60.93q0-4.34-3.91-4.34a5.68,5.68,0,0,0-3.17.94A11.61,11.61,0,0,0,156.39,60V70.67a1.5,1.5,0,0,1-.48,1.13,1.62,1.62,0,0,1-1.16.46A1.5,1.5,0,0,1,153.62,71.82Z"/><path class="cls-1" d="M183.65,68.85a8.59,8.59,0,0,0,2.46-1.9V64h-3.88c-3.58,0-5.37.94-5.37,2.8a2.65,2.65,0,0,0,.87,2.06,4.32,4.32,0,0,0,2.9.78A6.49,6.49,0,0,0,183.65,68.85Zm-7.13,3A5,5,0,0,1,174.41,70a5.08,5.08,0,0,1-.78-2.81A5,5,0,0,1,175.7,63a10,10,0,0,1,6.1-1.57h4.29V61.1a4.3,4.3,0,0,0-1.16-3.38,5.28,5.28,0,0,0-3.6-1,11.5,11.5,0,0,0-2.41.22,19,19,0,0,0-2.32.63,1.77,1.77,0,0,1-.46.07,1.33,1.33,0,0,1-1.31-1.34h0a1.39,1.39,0,0,1,.94-1.36,15.7,15.7,0,0,1,6.16-1.28,8,8,0,0,1,4.14,1,6.23,6.23,0,0,1,2.49,2.57,7.65,7.65,0,0,1,.78,3.42V70.68a1.5,1.5,0,0,1-.48,1.14,1.64,1.64,0,0,1-1.15.46,1.6,1.6,0,0,1-1.6-1.57v-1a9,9,0,0,1-6.7,2.69A6.4,6.4,0,0,1,176.52,71.82Z"/><path class="cls-1" d="M195.23,71.82a1.56,1.56,0,0,1-.46-1.14V55.44a1.62,1.62,0,0,1,.46-1.16,1.54,1.54,0,0,1,1.14-.48A1.63,1.63,0,0,1,198,55.43h0V57q2.49-3.35,5.58-3.35h.19a1.53,1.53,0,0,1,1.12.46,1.63,1.63,0,0,1,.43,1.13,1.42,1.42,0,0,1-.46,1.11,1.62,1.62,0,0,1-1.17.43h-.19a6.17,6.17,0,0,0-3.11.84,7.08,7.08,0,0,0-2.38,2.3V70.68a1.51,1.51,0,0,1-.49,1.14,1.63,1.63,0,0,1-1.15.46A1.56,1.56,0,0,1,195.23,71.82Z"/><path class="cls-1" d="M220.5,61.55a5.71,5.71,0,0,0-.91-2.92,4.85,4.85,0,0,0-2-1.72,5.4,5.4,0,0,0-4.77,0,4.73,4.73,0,0,0-2,1.72,5.8,5.8,0,0,0-.88,2.92ZM209.18,70a9.44,9.44,0,0,1-2.43-6.94,11.54,11.54,0,0,1,.94-4.67A7.87,7.87,0,0,1,210.51,55a8.13,8.13,0,0,1,4.73-1.31,8.28,8.28,0,0,1,4.55,1.23,7.9,7.9,0,0,1,2.91,3.26,10,10,0,0,1,1,4.46,1.55,1.55,0,0,1-1.49,1.6H210a5.79,5.79,0,0,0,1.85,3.87,6.33,6.33,0,0,0,4.37,1.38,10.44,10.44,0,0,0,2.61-.28,11.23,11.23,0,0,0,2.18-.82,1.3,1.3,0,0,1,.64-.14,1.45,1.45,0,0,1,1,.39,1.27,1.27,0,0,1,.44,1,1.51,1.51,0,0,1-.93,1.31A11.06,11.06,0,0,1,216,72.45,9.09,9.09,0,0,1,209.18,70Z"/><path class="cls-1" d="M233,70.91a11.13,11.13,0,0,1-4.44-4.43,13.67,13.67,0,0,1-1.62-6.77,13.71,13.71,0,0,1,1.62-6.78A11.07,11.07,0,0,1,233,48.5,13,13,0,0,1,239.37,47a14.69,14.69,0,0,1,4.32.56,18.68,18.68,0,0,1,3.79,1.63,1.44,1.44,0,0,1,.78,1.35,1.36,1.36,0,0,1-1.37,1.35h0a1.57,1.57,0,0,1-.64-.14,16.85,16.85,0,0,0-3-1.25A12.55,12.55,0,0,0,239.7,50a10.18,10.18,0,0,0-5.21,1.26,8.12,8.12,0,0,0-3.23,3.44,11.83,11.83,0,0,0,0,9.91,8.09,8.09,0,0,0,3.23,3.45,10.15,10.15,0,0,0,5.21,1.26,12.56,12.56,0,0,0,3.45-.44,16.82,16.82,0,0,0,3-1.24,1.3,1.3,0,0,1,.64-.14,1.38,1.38,0,0,1,1,.39,1.26,1.26,0,0,1,.39,1,1.45,1.45,0,0,1-.78,1.36,18.68,18.68,0,0,1-3.79,1.63,15.39,15.39,0,0,1-4.32.56A12.77,12.77,0,0,1,233,70.91Z"/><path class="cls-1" d="M252.94,71.82a1.51,1.51,0,0,1-.44-1.14V47.62a1.6,1.6,0,0,1,.45-1.16,1.54,1.54,0,0,1,1.14-.48,1.63,1.63,0,0,1,1.63,1.63v9.27a11.77,11.77,0,0,1,2.92-2.38,7.29,7.29,0,0,1,3.68-.89,6.17,6.17,0,0,1,3.4.92,6.1,6.1,0,0,1,2.19,2.53,8.06,8.06,0,0,1,.76,3.52V70.67a1.5,1.5,0,0,1-.48,1.14,1.67,1.67,0,0,1-1.16.46,1.59,1.59,0,0,1-1.6-1.57V60.93q0-4.34-3.9-4.34a5.66,5.66,0,0,0-3.17.94A11.61,11.61,0,0,0,255.7,60V70.67a1.49,1.49,0,0,1-.48,1.14,1.63,1.63,0,0,1-1.15.46A1.51,1.51,0,0,1,252.94,71.82Z"/><path class="cls-1" d="M283,68.85a8.41,8.41,0,0,0,2.45-1.9V64h-3.87c-3.57,0-5.35.94-5.35,2.8a2.57,2.57,0,0,0,.87,2.06,4.27,4.27,0,0,0,2.89.78A6.45,6.45,0,0,0,283,68.85Zm-7.12,3A5.05,5.05,0,0,1,273.73,70a5.14,5.14,0,0,1-.78-2.82A5,5,0,0,1,275,62.94a10.05,10.05,0,0,1,6.1-1.56h4.29v-.29a4.35,4.35,0,0,0-1.16-3.38,5.29,5.29,0,0,0-3.61-1,11.41,11.41,0,0,0-2.4.22,20.36,20.36,0,0,0-2.32.63,2.46,2.46,0,0,1-.46.08,1.34,1.34,0,0,1-1.31-1.35h0a1.37,1.37,0,0,1,.93-1.35,15.56,15.56,0,0,1,6.16-1.28,8.09,8.09,0,0,1,4.15,1,6.26,6.26,0,0,1,2.48,2.57,7.59,7.59,0,0,1,.81,3.43V70.68a1.55,1.55,0,0,1-.49,1.14,1.64,1.64,0,0,1-1.15.46,1.59,1.59,0,0,1-1.61-1.56v-1a8.85,8.85,0,0,1-6.68,2.7A6.61,6.61,0,0,1,275.85,71.82Z"/><path class="cls-1" d="M303.69,70.57a1.34,1.34,0,0,1-.81,1.25,7.16,7.16,0,0,1-2.95.65q-5.19,0-5.19-4.69v-11h-2.05a1.28,1.28,0,0,1-1-.41,1.4,1.4,0,0,1,.89-2.36h2.15V47.57A1.58,1.58,0,0,1,296.32,46h0a1.61,1.61,0,0,1,1.16.46,1.54,1.54,0,0,1,.48,1.12V54h4a1.4,1.4,0,0,1,1.38,1.4,1.38,1.38,0,0,1-.39,1,1.28,1.28,0,0,1-1,.4h-4V67.47c0,.93.21,1.52.65,1.77a3.38,3.38,0,0,0,1.65.37,4.91,4.91,0,0,0,1.43-.22l.3-.07a1.42,1.42,0,0,1,.41,0,1.22,1.22,0,0,1,.89.37A1.26,1.26,0,0,1,303.69,70.57Z"/></g></g></svg>