<svg id="Layer_1" data-name="Layer 1" xmlns="http://www.w3.org/2000/svg" viewBox="0 0 400 400"><defs><style>.cls-1{fill:#fff;}.cls-2{fill:#5937b9;fill-rule:evenodd;}</style></defs><rect class="cls-1" x="-2275.34" y="-106.79" width="2777.89" height="4120.23"/><path class="cls-2" d="M51.13,169.55v60.9H200.74v-60.9Zm35.56,31.91a12.81,12.81,0,0,1-1,4.39,9.47,9.47,0,0,1-2.33,3.41A9.08,9.08,0,0,1,80,211.45a13.72,13.72,0,0,1-4.66.85,11.33,11.33,0,0,1-4.66-.85,8.88,8.88,0,0,1-5.4-5.73,12.66,12.66,0,0,1-.61-4.38v-16h4.9v16a8.92,8.92,0,0,0,.25,2.68,5.7,5.7,0,0,0,1.1,2.07,5.09,5.09,0,0,0,1.84,1.34,5.69,5.69,0,0,0,2.58.49,5.62,5.62,0,0,0,2.57-.49,7,7,0,0,0,2-1.34A9.11,9.11,0,0,0,81.3,204a9.71,9.71,0,0,0,.61-2.68v-16h4.91v16.08Zm21.1,10.72a1.76,1.76,0,0,1-1.11-.36,2.07,2.07,0,0,1-.73-.74l-5.64-8.52a7.19,7.19,0,0,0-.74-1,1.23,1.23,0,0,0-1-.36H96.5v11H91.6v-26.8h8a17.5,17.5,0,0,1,4.66.61,10,10,0,0,1,3.19,1.58,6,6,0,0,1,1.84,2.44,8.42,8.42,0,0,1,.61,3.05,7.91,7.91,0,0,1-1.47,4.75,8.16,8.16,0,0,1-1.84,1.7,14.35,14.35,0,0,1-2.45,1.22,5,5,0,0,1,1.59,1.58l6.62,9.87Zm26.73-4.87a6.07,6.07,0,0,1-1.84,2.43,8.3,8.3,0,0,1-3.06,1.71,14.42,14.42,0,0,1-4.17.61H114.9V185.38h9.69A15.59,15.59,0,0,1,129,186a10.3,10.3,0,0,1,3.07,1.46,6,6,0,0,1,1.72,2.2,7.41,7.41,0,0,1,.61,2.92,8.85,8.85,0,0,1-.25,1.83,6.56,6.56,0,0,1-.86,1.58,5,5,0,0,1-1.47,1.34,10.37,10.37,0,0,1-2.08,1q5.52,1.29,5.52,5.85A11.2,11.2,0,0,1,134.52,207.31Zm24.41,4.87a4,4,0,0,1-1.11-.36c-.24-.25-.49-.25-.61-.49l-2-5.24h-11l-2,5.12a1.78,1.78,0,0,1-.61.73,1.37,1.37,0,0,1-1,.24h-3.8l10.42-26.8h5l10.43,26.8Zm29.55,0h-3.06a2.4,2.4,0,0,1-1-.24,2.19,2.19,0,0,1-.73-.73l-14-17.67a3.56,3.56,0,0,0,.24,1.1,3.16,3.16,0,0,1,.13,1.1v16.44h-4.91v-26.8h2.94c.25,0,.37.13.49.13s.25.12.37.12.25.12.37.24l.37.37,14,17.66c0-.49-.12-.86-.12-1.22v-17.3h4.9v26.8Z"/><path class="cls-2" d="M128.14,196.35a3.61,3.61,0,0,0,1.35-3,3.79,3.79,0,0,0-1.22-3.17,5.75,5.75,0,0,0-3.68-1.09H119.8v8.52h4.54A6.41,6.41,0,0,0,128.14,196.35Zm22.2-4.51c-.12-.49-.37-1.1-.49-1.71-.12.61-.37,1.22-.49,1.71s-.37,1.21-.49,1.58l-3.31,9H154l-3.19-9A4.83,4.83,0,0,1,150.34,191.84Zm-21.21,9.62a4.42,4.42,0,0,0-1.48-1,6.44,6.44,0,0,0-2.33-.49h-5.51v8.53h5.64a6.23,6.23,0,0,0,2.33-.49,4.38,4.38,0,0,0,1.47-1,5.18,5.18,0,0,0,.86-1.35,6.17,6.17,0,0,0,.24-1.58,5.75,5.75,0,0,0-.25-1.58A8.33,8.33,0,0,0,129.13,201.46ZM105,193.54a4.34,4.34,0,0,0-1.35-3.29A6.17,6.17,0,0,0,99.57,189H96.5v8.52h3.07a8,8,0,0,0,2.45,0,3.72,3.72,0,0,0,1.72-.85,3.45,3.45,0,0,0,1-1.34,8.34,8.34,0,0,0,.25-1.83Zm94.55-24v60.9H350.36v-60.9Zm145.94,56h-141V174.42h141Z"/><path class="cls-2" d="M224.78,202.43v9.75h-3.56V186H229a14.66,14.66,0,0,1,4.29.61,10.43,10.43,0,0,1,3.07,1.58,6.26,6.26,0,0,1,1.84,2.56,9.18,9.18,0,0,1,0,6.58,9.69,9.69,0,0,1-1.84,2.56,8.25,8.25,0,0,1-3.07,1.7,14,14,0,0,1-4.17.61h-4.29v.25Zm0-2.92h4.29a9.1,9.1,0,0,0,2.7-.36,5.13,5.13,0,0,0,2-1.1,5.54,5.54,0,0,0,1.23-1.7,6.27,6.27,0,0,0,.37-2.2,4.76,4.76,0,0,0-1.6-3.89,6.43,6.43,0,0,0-4.66-1.47h-4.29Zm26.49,12.67h-3.56V186h3.56Zm12.27-9.75v9.75H260V186h7.72a14.78,14.78,0,0,1,4.3.61,10.5,10.5,0,0,1,3.06,1.58,6.26,6.26,0,0,1,1.84,2.56,9,9,0,0,1,0,6.58,9.69,9.69,0,0,1-1.84,2.56,8.28,8.28,0,0,1-3.06,1.7,14.08,14.08,0,0,1-4.17.61h-4.29v.25Zm0-2.92h4.29a9.19,9.19,0,0,0,2.7-.36,5.21,5.21,0,0,0,2-1.1,5.51,5.51,0,0,0,1.22-1.7,6.27,6.27,0,0,0,.37-2.2,4.78,4.78,0,0,0-1.59-3.89,6.45,6.45,0,0,0-4.66-1.47h-4.29ZM303.27,186v2.92H290.64v8.65h10.3v2.81h-10.3v8.89h12.63v2.92H287.08V186Zm12.63,15.23v11h-3.56V186h7.48a14.75,14.75,0,0,1,4.3.49,10.11,10.11,0,0,1,3.06,1.46,5.5,5.5,0,0,1,1.72,2.31,7.93,7.93,0,0,1,.61,3.05,5.58,5.58,0,0,1-.49,2.56,6.31,6.31,0,0,1-1.22,2.19,6.71,6.71,0,0,1-2.09,1.58,7.15,7.15,0,0,1-2.7,1,3.52,3.52,0,0,1,1.23,1.09L332,212.06h-3.18a1.77,1.77,0,0,1-1.48-.73L320.44,202a3.06,3.06,0,0,0-.74-.61,2.75,2.75,0,0,0-1.1-.12Zm0-2.56h3.68a8.34,8.34,0,0,0,2.7-.37,5.06,5.06,0,0,0,2-1.09,5.25,5.25,0,0,0,1.23-1.58,5.82,5.82,0,0,0,.36-2.08,4.07,4.07,0,0,0-1.59-3.53,7.9,7.9,0,0,0-4.66-1.22h-3.93v9.87Z"/></svg>